<svg width="26" height="26" viewBox="0 0 26 26" fill="none" xmlns="http://www.w3.org/2000/svg">
<path d="M12.9993 2.16626C7.01646 2.16626 2.16602 7.0167 2.16602 12.9996C2.16602 18.9825 7.01646 23.8329 12.9993 23.8329C18.9822 23.8329 23.8327 18.9825 23.8327 12.9996C23.8327 7.0167 18.9822 2.16626 12.9993 2.16626ZM12.9993 4.33293C17.7779 4.33293 21.666 8.22101 21.666 12.9996C21.666 17.7785 17.7779 21.6663 12.9993 21.6663C8.22077 21.6663 4.33268 17.7785 4.33268 12.9996C4.33268 8.22101 8.22077 4.33293 12.9993 4.33293Z" fill="#535353"/>
<path d="M11.1935 17.6941C10.9791 17.6944 10.7695 17.631 10.5911 17.5121C10.4128 17.3931 10.2738 17.2238 10.1918 17.0258C10.1097 16.8277 10.0884 16.6097 10.1303 16.3995C10.1723 16.1893 10.2758 15.9962 10.4276 15.8449L14.0387 12.2337C14.1392 12.1331 14.2586 12.0533 14.3901 11.9988C14.5215 11.9443 14.6623 11.9163 14.8046 11.9163C14.9469 11.9163 15.0877 11.9443 15.2192 11.9988C15.3506 12.0533 15.47 12.1331 15.5705 12.2337C15.6712 12.3343 15.751 12.4537 15.8055 12.5851C15.86 12.7165 15.888 12.8574 15.888 12.9997C15.888 13.1419 15.86 13.2828 15.8055 13.4142C15.751 13.5456 15.6712 13.665 15.5705 13.7656L11.9594 17.3767C11.859 17.4775 11.7396 17.5574 11.6081 17.6118C11.4767 17.6663 11.3358 17.6943 11.1935 17.6941Z" fill="#535353"/>
<path d="M14.8057 14.083C14.6634 14.0831 14.5224 14.0551 14.391 14.0006C14.2595 13.9461 14.1402 13.8661 14.0397 13.7652L10.4286 10.1541C10.328 10.0536 10.2482 9.93422 10.1938 9.80283C10.1394 9.67145 10.1113 9.53062 10.1113 9.3884C10.1113 9.24617 10.1394 9.10535 10.1938 8.97396C10.2482 8.84257 10.328 8.7232 10.4286 8.62266C10.5292 8.52201 10.6486 8.44217 10.78 8.38769C10.9114 8.33322 11.0523 8.30518 11.1945 8.30518C11.3368 8.30518 11.4777 8.33322 11.6091 8.38769C11.7405 8.44217 11.8599 8.52201 11.9605 8.62266L15.5716 12.2338C15.7233 12.3852 15.8266 12.5782 15.8685 12.7883C15.9104 12.9985 15.889 13.2164 15.807 13.4144C15.725 13.6124 15.586 13.7816 15.4078 13.9005C15.2295 14.0195 15.02 14.0829 14.8057 14.0827" fill="#535353"/>
</svg>
