<svg width="42" height="42" viewBox="0 0 42 42" fill="none" xmlns="http://www.w3.org/2000/svg">
<g clip-path="url(#clip0_434_5213)">
<path d="M21.0009 42C16.167 41.9854 11.4862 40.3036 7.74841 37.2384C4.01059 34.1733 1.44466 29.9125 0.483663 25.1751C-0.477338 20.4377 0.225434 15.5138 2.47337 11.2344C4.72131 6.95499 8.37677 3.58213 12.8228 1.68503C17.9219 -0.32909 23.6065 -0.269259 28.662 1.85174C33.7176 3.97275 37.7432 7.98673 39.8789 13.0361C42.0145 18.0855 42.0908 23.7698 40.0915 28.8747C38.0922 33.9796 34.1758 38.1002 29.179 40.3562C26.5913 41.4487 23.8098 42.0078 21.0009 42ZM21.0009 3.28777C11.2201 3.28777 3.2886 11.2604 3.2886 21.0001C3.2886 30.7398 11.2201 38.7124 21.0009 38.7124C30.7817 38.7124 38.7132 30.7809 38.7132 21.0001C38.7132 11.2193 30.7406 3.28777 21.0009 3.28777Z" fill="white"/>
<path d="M13.15 30.4931C12.8283 30.4885 12.515 30.3897 12.2489 30.2088C11.9828 30.0279 11.7756 29.7728 11.6531 29.4753C11.5306 29.1777 11.4981 28.8508 11.5596 28.535C11.6212 28.2191 11.7741 27.9283 11.9994 27.6986L27.6569 12.041C27.9675 11.7304 28.3888 11.5559 28.8281 11.5559C29.2674 11.5559 29.6887 11.7304 29.9993 12.041C30.31 12.3517 30.4845 12.773 30.4845 13.2123C30.4845 13.6516 30.31 14.0729 29.9993 14.3835L14.3418 29.9999C14.1867 30.1582 14.0011 30.2835 13.7963 30.3683C13.5915 30.453 13.3717 30.4955 13.15 30.4931Z" fill="white"/>
<path d="M28.809 30.4931C28.3754 30.487 27.9618 30.3097 27.6583 30L12.0008 14.3425C11.847 14.1887 11.7249 14.0061 11.6417 13.8051C11.5585 13.6042 11.5156 13.3888 11.5156 13.1713C11.5156 12.732 11.6901 12.3107 12.0008 12C12.3114 11.6894 12.7327 11.5149 13.172 11.5149C13.6113 11.5149 14.0326 11.6894 14.3432 12L29.9596 27.6986C30.1849 27.9284 30.3378 28.2192 30.3993 28.535C30.4609 28.8509 30.4284 29.1778 30.3059 29.4754C30.1834 29.7729 29.9762 30.0279 29.7101 30.2089C29.444 30.3898 29.1307 30.4886 28.809 30.4931Z" fill="white"/>
</g>
<defs>
<clipPath id="clip0_434_5213">
<rect width="42" height="42" fill="white"/>
</clipPath>
</defs>
</svg>
