<svg width="20" height="20" viewBox="0 0 20 20" fill="none" xmlns="http://www.w3.org/2000/svg">
<path d="M15.6503 8.17029L5.13156 18.6815H0.625V14.1769L11.1438 3.66561L15.6503 8.17029ZM16.5334 7.28717L12.0278 2.78248L13.2625 1.54873C13.75 1.06123 14.5413 1.06123 15.0297 1.54873L17.7691 4.28436C17.8852 4.40041 17.9774 4.53823 18.0403 4.68992C18.1031 4.84161 18.1355 5.00421 18.1355 5.16842C18.1355 5.33262 18.1031 5.49522 18.0403 5.64691C17.9774 5.79861 17.8852 5.93642 17.7691 6.05248L16.5344 7.28717H16.5334ZM10.6253 16.1728H18.1253C18.4507 16.1817 18.7598 16.3172 18.9868 16.5505C19.2138 16.7838 19.3408 17.0965 19.3408 17.422C19.3408 17.7475 19.2138 18.0602 18.9868 18.2935C18.7598 18.5268 18.4507 18.6623 18.1253 18.6712H10.6253C10.4584 18.6758 10.2922 18.6469 10.1367 18.5862C9.98111 18.5254 9.8393 18.4341 9.71961 18.3177C9.59992 18.2012 9.50479 18.062 9.43983 17.9081C9.37487 17.7543 9.3414 17.589 9.3414 17.422C9.3414 17.255 9.37487 17.0897 9.43983 16.9359C9.50479 16.782 9.59992 16.6428 9.71961 16.5263C9.8393 16.4099 9.98111 16.3186 10.1367 16.2579C10.2922 16.1971 10.4584 16.1682 10.6253 16.1728Z" fill="#5C5C5C"/>
</svg>
