<svg width="16" height="16" viewBox="0 0 16 16" fill="none" xmlns="http://www.w3.org/2000/svg">
<g clip-path="url(#clip0_611_644)">
<path opacity="0.01" d="M0 0H15.6V15.6H0V0Z" fill="#202425"/>
<path d="M6.91744 1.09789C8.01966 0.952759 9.14065 1.0817 10.1811 1.47331C11.2216 1.86491 12.1494 2.50708 12.8824 3.34293C13.6154 4.17878 14.131 5.18251 14.3834 6.26521C14.6358 7.3479 14.6173 8.47614 14.3295 9.54997C14.3118 9.61594 14.2813 9.67777 14.2397 9.73195C14.1982 9.78613 14.1463 9.83158 14.0872 9.86572C14.028 9.89986 13.9627 9.92201 13.895 9.93092C13.8273 9.93982 13.7585 9.9353 13.6925 9.91761C13.6266 9.89993 13.5647 9.86942 13.5105 9.82784C13.4564 9.78625 13.4109 9.7344 13.3768 9.67525C13.3426 9.6161 13.3205 9.55081 13.3116 9.48309C13.3027 9.41538 13.3072 9.34658 13.3249 9.28061C13.6508 8.06435 13.5663 6.77453 13.0844 5.6112C12.6026 4.44787 11.7503 3.47604 10.6598 2.84645C9.56937 2.21686 8.30162 1.96468 7.05322 2.12903C5.80481 2.29338 4.64553 2.86508 3.75516 3.75545C2.86479 4.64582 2.29309 5.8051 2.12874 7.0535C1.96439 8.30191 2.21657 9.56966 2.84616 10.6601C3.47575 11.7506 4.44758 12.6029 5.61091 13.0847C6.77424 13.5666 8.06406 13.6511 9.28032 13.3252C9.34629 13.3075 9.41509 13.303 9.4828 13.3119C9.55052 13.3208 9.61581 13.3429 9.67496 13.3771C9.73411 13.4112 9.78596 13.4567 9.82755 13.5108C9.86913 13.565 9.89964 13.6268 9.91732 13.6928C9.93501 13.7588 9.93953 13.8276 9.93063 13.8953C9.92172 13.963 9.89957 14.0283 9.86543 14.0875C9.83129 14.1466 9.78584 14.1985 9.73166 14.24C9.67748 14.2816 9.61565 14.3121 9.54968 14.3298C8.65628 14.5691 7.72328 14.6224 6.80842 14.4866C5.89356 14.3508 5.01629 14.0287 4.23091 13.5403C3.44553 13.0518 2.76873 12.4074 2.24239 11.6469C1.71606 10.8864 1.35138 10.0259 1.17093 9.11883C0.990478 8.21172 0.998088 7.27723 1.19329 6.37317C1.38849 5.46912 1.76713 4.61474 2.30578 3.8629C2.84443 3.11105 3.53163 2.47774 4.32487 2.00214C5.1181 1.52655 6.00049 1.21878 6.91744 1.09789ZM3.63988 7.80017C3.63988 6.69687 4.07817 5.63876 4.85832 4.85861C5.63847 4.07846 6.69658 3.64017 7.79988 3.64017C8.90318 3.64017 9.9613 4.07846 10.7414 4.85861C11.5216 5.63876 11.9599 6.69687 11.9599 7.80017C11.9599 8.90347 11.5216 9.96159 10.7414 10.7417C9.9613 11.5219 8.90318 11.9602 7.79988 11.9602C6.69658 11.9602 5.63847 11.5219 4.85832 10.7417C4.07817 9.96159 3.63988 8.90347 3.63988 7.80017ZM7.79988 2.60017C4.92792 2.60017 2.59988 4.92821 2.59988 7.80017C2.59988 10.6721 4.92792 13.0002 7.79988 13.0002C8.99975 13.0021 10.163 12.5872 11.091 11.8265L13.1522 13.8878C13.2503 13.9825 13.3817 14.0349 13.518 14.0338C13.6544 14.0326 13.7848 13.9779 13.8812 13.8815C13.9776 13.7851 14.0323 13.6546 14.0335 13.5183C14.0347 13.382 13.9822 13.2506 13.8875 13.1525L11.8262 11.0913C12.5869 10.1633 13.0018 9.00004 12.9999 7.80017C12.9999 4.92821 10.6718 2.60017 7.79988 2.60017ZM5.71988 7.28017C5.71988 7.41809 5.6651 7.55035 5.56758 7.64787C5.47006 7.74539 5.3378 7.80017 5.19988 7.80017C5.06197 7.80017 4.92971 7.74539 4.83219 7.64787C4.73467 7.55035 4.67988 7.41809 4.67988 7.28017C4.67988 6.59061 4.95381 5.92929 5.44141 5.4417C5.929 4.9541 6.59032 4.68017 7.27988 4.68017C7.4178 4.68017 7.55006 4.73496 7.64758 4.83248C7.7451 4.93 7.79988 5.06226 7.79988 5.20017C7.79988 5.33809 7.7451 5.47035 7.64758 5.56787C7.55006 5.66539 7.4178 5.72017 7.27988 5.72017C6.86615 5.72017 6.46935 5.88453 6.1768 6.17709C5.88424 6.46964 5.71988 6.86644 5.71988 7.28017Z" fill="#202425"/>
</g>
<defs>
<clipPath id="clip0_611_644">
<rect width="15.6" height="15.6" fill="white"/>
</clipPath>
</defs>
</svg>
