<svg width="24" height="25" viewBox="0 0 24 25" fill="none" xmlns="http://www.w3.org/2000/svg">
<path d="M11.9996 23.287C17.7189 23.287 22.3548 18.458 22.3548 12.5004C22.3548 6.54286 17.7189 1.71387 11.9996 1.71387C6.28036 1.71387 1.64453 6.54286 1.64453 12.5004C1.64453 18.458 6.28036 23.287 11.9996 23.287ZM11.9996 21.689C10.8412 21.689 9.69419 21.4514 8.62397 20.9896C7.55375 20.5278 6.58132 19.851 5.76221 18.9978C4.9431 18.1445 4.29334 17.1316 3.85004 16.0168C3.40674 14.902 3.17858 13.7071 3.17858 12.5004C3.17858 11.2938 3.40674 10.0989 3.85004 8.98412C4.29334 7.86931 4.9431 6.85637 5.76221 6.00313C6.58132 5.14989 7.55375 4.47307 8.62397 4.0113C9.69419 3.54954 10.8412 3.31187 11.9996 3.31188C14.3391 3.31189 16.5828 4.27997 18.237 6.00316C19.8913 7.72635 20.8206 10.0635 20.8206 12.5004C20.8206 14.9374 19.8913 17.2745 18.237 18.9977C16.5828 20.7209 14.3391 21.689 11.9996 21.689Z" fill="#AC1F24"/>
<path d="M17.1226 17.0779C14.2644 14.1006 9.6775 14.0387 6.87874 16.954C6.73494 17.104 6.65421 17.3073 6.6543 17.5192C6.65439 17.7311 6.7353 17.9343 6.87922 18.0841C7.02315 18.2339 7.21831 18.318 7.42177 18.3179C7.62523 18.3178 7.82031 18.2336 7.96411 18.0836C10.1569 15.7995 13.7726 15.8484 16.0373 18.2075C16.1077 18.2849 16.1923 18.3468 16.2861 18.3895C16.3799 18.4323 16.481 18.4551 16.5833 18.4566C16.6857 18.458 16.7873 18.4381 16.8822 18.398C16.9771 18.358 17.0633 18.2985 17.1357 18.2231C17.2082 18.1478 17.2654 18.0581 17.3041 17.9593C17.3427 17.8606 17.362 17.7548 17.3608 17.6481C17.3596 17.5415 17.3379 17.4362 17.297 17.3384C17.2561 17.2407 17.1968 17.1524 17.1226 17.0789V17.0779Z" fill="#AC1F24"/>
<path d="M7.20508 10.5941C7.20508 10.9253 7.33135 11.2428 7.55611 11.4769C7.78088 11.7111 8.08572 11.8426 8.40359 11.8426C8.72145 11.8426 9.0263 11.7111 9.25106 11.4769C9.47582 11.2428 9.60209 10.9253 9.60209 10.5941C9.60209 10.263 9.47582 9.94549 9.25106 9.71136C9.0263 9.47724 8.72145 9.3457 8.40359 9.3457C8.08572 9.3457 7.78088 9.47724 7.55611 9.71136C7.33135 9.94549 7.20508 10.263 7.20508 10.5941Z" fill="#AC1F24"/>
<path d="M14.3965 10.5941C14.3965 10.9253 14.5228 11.2428 14.7475 11.4769C14.9723 11.7111 15.2771 11.8426 15.595 11.8426C15.9129 11.8426 16.2177 11.7111 16.4425 11.4769C16.6672 11.2428 16.7935 10.9253 16.7935 10.5941C16.7935 10.263 16.6672 9.94549 16.4425 9.71136C16.2177 9.47724 15.9129 9.3457 15.595 9.3457C15.2771 9.3457 14.9723 9.47724 14.7475 9.71136C14.5228 9.94549 14.3965 10.263 14.3965 10.5941Z" fill="#AC1F24"/>
</svg>
