<svg width="22" height="22" viewBox="0 0 22 22" fill="none" xmlns="http://www.w3.org/2000/svg">
<path d="M18.7814 3.21861C14.4811 -1.07287 7.5189 -1.07287 3.21861 3.21861C-1.07287 7.5189 -1.07287 14.4811 3.21861 18.7814C7.5189 23.0727 14.4811 23.0727 18.7814 18.7814C23.0729 14.4813 23.0729 7.51847 18.7814 3.21861ZM11.0006 20.6288C5.68522 20.6224 1.37741 16.315 1.37097 10.9998C1.37741 5.68458 5.68522 1.3772 11.0006 1.37096C16.3148 1.3772 20.6226 5.68458 20.629 10.9998C20.6226 16.315 16.3148 20.6224 11.0006 20.6288ZM5.13888 8.55788C5.13888 7.9241 5.653 7.41062 6.28571 7.41062C6.91992 7.41062 7.43318 7.9241 7.43318 8.55788C7.43318 9.19145 6.91971 9.70514 6.28571 9.70514C5.653 9.70514 5.13888 9.19145 5.13888 8.55788ZM14.3898 8.55788C14.3898 7.9241 14.9033 7.41062 15.5373 7.41062C16.1708 7.41062 16.6847 7.9241 16.6847 8.55788C16.6847 9.19145 16.1706 9.70514 15.5373 9.70514C14.9033 9.70514 14.3898 9.19145 14.3898 8.55788ZM16.3786 14.0166C16.5782 13.6647 16.4899 13.1993 16.179 12.9682C15.8681 12.7372 15.449 12.8251 15.2346 13.1665C14.2353 14.8352 12.9121 15.8832 11.0017 15.8832C9.09241 15.8832 7.76941 14.8352 6.76889 13.1667C6.63354 12.9387 6.39828 12.8092 6.15358 12.8268C5.90887 12.8442 5.69102 13.0064 5.58167 13.2518C5.47339 13.4971 5.48971 13.7889 5.62614 14.0166C6.85504 16.0703 8.55466 17.4163 11.0024 17.4163C13.4501 17.4165 15.1486 16.0707 16.3786 14.0166Z" fill="#42CE8D"/>
</svg>
