<svg width="24" height="24" viewBox="0 0 24 24" fill="none" xmlns="http://www.w3.org/2000/svg">
<path d="M21.6955 9C21.9995 9 22.2915 9.06 22.5715 9.18C22.8515 9.3 23.0915 9.46 23.2915 9.66C23.4915 9.86 23.6515 10.1 23.7715 10.38C23.8915 10.66 23.9515 10.952 23.9515 11.256C23.9515 11.576 23.8915 11.872 23.7715 12.144C23.6515 12.416 23.4915 12.652 23.2915 12.852C23.0915 13.052 22.8515 13.212 22.5715 13.332C22.2915 13.452 21.9995 13.512 21.6955 13.512H14.9515V20.256C14.9515 20.576 14.8915 20.872 14.7715 21.144C14.6515 21.416 14.4915 21.652 14.2915 21.852C14.0915 22.052 13.8515 22.212 13.5715 22.332C13.2915 22.452 12.9995 22.512 12.6955 22.512C12.3755 22.512 12.0795 22.452 11.8075 22.332C11.5355 22.212 11.2995 22.052 11.0995 21.852C10.8995 21.652 10.7395 21.416 10.6195 21.144C10.4995 20.872 10.4395 20.576 10.4395 20.256V13.512H3.69545C3.37545 13.512 3.07945 13.452 2.80745 13.332C2.53545 13.212 2.29945 13.052 2.09945 12.852C1.89945 12.652 1.73945 12.416 1.61945 12.144C1.49945 11.872 1.43945 11.576 1.43945 11.256C1.43945 10.952 1.49945 10.66 1.61945 10.38C1.73945 10.1 1.89945 9.86 2.09945 9.66C2.29945 9.46 2.53545 9.3 2.80745 9.18C3.07945 9.06 3.37545 9 3.69545 9H10.4395V2.256C10.4395 1.952 10.4995 1.66 10.6195 1.38C10.7395 1.1 10.8995 0.86 11.0995 0.66C11.2995 0.46 11.5355 0.3 11.8075 0.18C12.0795 0.06 12.3755 0 12.6955 0C13.3195 0 13.8515 0.22 14.2915 0.66C14.7315 1.1 14.9515 1.632 14.9515 2.256V9H21.6955Z" fill="white"/>
</svg>
