<svg width="24" height="24" viewBox="0 0 24 24" fill="none" xmlns="http://www.w3.org/2000/svg">
<path d="M11.9997 23.84C13.6509 23.84 16.4701 21.456 16.4701 11.92C16.4701 2.384 13.6509 0 11.9997 0C10.3485 0 7.5293 2.5456 7.5293 11.92C7.5373 21.2944 10.3565 23.84 11.9997 23.84Z" fill="white"/>
<path d="M1.43542 17.808C0.608225 16.3744 1.26422 12.7424 9.52343 7.97439C17.781 3.20639 21.2546 4.45439 22.0802 5.88479C22.9058 7.31519 22.1122 11.0288 13.9922 15.7168C5.87222 20.3984 2.25622 19.2304 1.43542 17.8064V17.808Z" fill="white"/>
<path d="M22.5647 17.808C23.3903 16.376 22.7359 12.744 14.4767 7.97598C6.21907 3.20798 2.74387 4.45598 1.91987 5.88638C1.09427 7.31678 1.89107 11.0304 10.0079 15.7184C18.1311 20.3984 21.7439 19.2304 22.5663 17.8064L22.5647 17.808Z" fill="white"/>
</svg>
