<svg width="24" height="24" viewBox="0 0 24 24" fill="none" xmlns="http://www.w3.org/2000/svg">
<g clip-path="url(#clip0_1_239)">
<path d="M20.4708 24H0.706055V16.9412H23.2943V24H20.4708ZM13.4119 19.7647H3.52958V21.1765H13.4119V19.7647ZM20.4708 19.7647H16.2355V21.1765H20.4708V19.7647ZM20.4708 15.5294H0.706055V8.47059H23.2943V15.5294H20.4708ZM13.4119 11.2941H3.52958V12.7059H13.4119V11.2941ZM20.4708 11.2941H16.2355V12.7059H20.4708V11.2941ZM20.4708 7.05882H0.706055V0H23.2943V7.05882H20.4708ZM13.4119 2.82353H3.52958V4.23529H13.4119V2.82353ZM20.4708 2.82353H16.2355V4.23529H20.4708V2.82353Z" fill="black"/>
</g>
<defs>
<clipPath id="clip0_1_239">
<rect width="24" height="24" fill="white"/>
</clipPath>
</defs>
</svg>
