<svg width="20" height="18" viewBox="0 0 20 18" fill="none" xmlns="http://www.w3.org/2000/svg">
<path d="M19.7476 7.10208L11.261 0.432301C10.5359 -0.1441 9.40008 -0.1441 8.67501 0.432301L0.252729 7.10566C-0.0365863 7.33479 -0.0830196 7.75367 0.142003 8.04008C0.367026 8.32649 0.788497 8.37661 1.07424 8.15106L1.3457 7.93625V16.0023C1.3457 17.1443 2.52796 18 3.58521 18H16.8723C17.9152 18 18.6189 17.198 18.6189 16.0023V7.91477L18.9189 8.15106C19.0403 8.24772 19.1832 8.29427 19.3297 8.29427C19.5261 8.29427 19.7226 8.20834 19.8547 8.04008C20.0869 7.75009 20.0333 7.33121 19.7476 7.10208ZM11.9789 15.2755V16.6646H10.6502H9.3215H7.9928V15.2755V12.9377C7.9928 12.1644 8.61786 11.3302 9.98586 11.3302C11.3574 11.3302 11.9789 12.1644 11.9789 12.9377V15.2755Z" fill="white"/>
</svg>
