<svg width="27" height="26" viewBox="0 0 27 26" fill="none" xmlns="http://www.w3.org/2000/svg">
<path d="M1.9039 5.15884e-07C1.65394 -0.000183548 1.4064 0.0488902 1.17542 0.144417C0.944432 0.239945 0.734536 0.380052 0.557724 0.556734C0.380913 0.733416 0.24065 0.943208 0.144953 1.17412C0.0492559 1.40503 -6.77702e-08 1.65254 0 1.9025V15.2256C-6.77702e-08 15.4756 0.0492559 15.7231 0.144953 15.954C0.24065 16.1849 0.380913 16.3947 0.557724 16.5714C0.734536 16.7481 0.944432 16.8882 1.17542 16.9837C1.4064 17.0792 1.65394 17.1283 1.9039 17.1281H3.8064V18.5221C3.80598 18.7866 3.87746 19.0463 4.0132 19.2734C4.14895 19.5005 4.34386 19.6864 4.57709 19.8113C4.81032 19.9362 5.07311 19.9954 5.33736 19.9825C5.60161 19.9696 5.85739 19.8851 6.07735 19.7381L9.99163 17.1281H17.1281C17.3781 17.1283 17.6256 17.0792 17.8566 16.9837C18.0876 16.8882 18.2975 16.7481 18.4743 16.5714C18.6511 16.3947 18.7914 16.1849 18.887 15.954C18.9827 15.7231 19.032 15.4756 19.032 15.2256V1.9025C19.032 1.65254 18.9827 1.40503 18.887 1.17412C18.7914 0.943208 18.6511 0.733416 18.4743 0.556734C18.2975 0.380052 18.0876 0.239945 17.8566 0.144417C17.6256 0.0488902 17.3781 -0.000183551 17.1281 5.15884e-07H1.9039ZM24.3612 5.42451C25.6922 5.42451 26.6448 6.37576 26.6448 7.70807V20.0785C26.6448 21.4108 25.6922 22.3621 24.3612 22.3621H21.8872V24.0754C21.8909 24.2719 21.8393 24.4654 21.7382 24.6339C21.6371 24.8024 21.4907 24.939 21.3156 25.0281C21.1194 25.1234 20.9345 25.2172 20.7454 25.2172C20.5548 25.2172 20.3643 25.2172 20.1738 25.0267L16.1769 22.1715H12.7515C11.4192 22.1715 10.468 21.2203 10.468 19.888V18.3665H17.5092C19.032 18.3665 20.3643 17.0356 20.3643 15.5128V5.42591H24.3612V5.42451ZM3.85403 12.037L6.32812 4.88654C6.5817 4.20007 7.01039 3.84002 7.6128 3.8064C8.21521 3.8064 8.65932 4.16645 8.94371 4.88514L11.3253 12.0384C11.3898 12.243 11.4206 12.4153 11.4206 12.5526C11.3898 13.0653 11.104 13.3231 10.5646 13.3231C10.1191 13.3231 9.81931 13.1186 9.6596 12.7067L9.32757 11.4724H5.94566L5.566 12.7053C5.40629 13.1186 5.10649 13.3231 4.66098 13.3231C4.12162 13.3231 3.83582 13.0499 3.805 12.5007C3.805 12.3985 3.82181 12.2766 3.85263 12.1407V12.0384L3.85403 12.037ZM7.6128 5.86441L6.47102 9.66941H8.75458L7.6128 5.86441ZM12.3705 12.3929V4.84171C12.4041 4.18606 12.7207 3.84142 13.3231 3.8064C13.9241 3.84002 14.2407 4.18606 14.2744 4.84031V12.3915C14.2407 13.0121 13.9241 13.3217 13.3217 13.3217C12.7207 13.3217 12.4041 13.0121 12.3705 12.3915V12.3929Z" fill="black"/>
</svg>
