<svg width="26" height="26" viewBox="0 0 26 26" fill="none" xmlns="http://www.w3.org/2000/svg">
<path d="M21.7139 21.4235C21.6944 21.326 21.6684 21.0919 21.6293 20.7245C21.5903 20.3572 21.5383 19.9638 21.4733 19.5477C21.4083 19.1348 21.3497 18.7316 21.2945 18.348C21.236 17.9644 21.1937 17.701 21.1612 17.558C21.0832 17.2849 20.9856 17.0606 20.8848 16.8818C20.7808 16.7062 20.5662 16.5339 20.2476 16.3746C20.1371 16.3258 19.968 16.2576 19.7437 16.1698C19.5194 16.082 19.2626 15.9845 18.9765 15.8837C18.6904 15.7797 18.388 15.6724 18.0727 15.5586C17.7573 15.4448 17.4615 15.3375 17.1721 15.2335C16.886 15.1294 16.6357 15.0449 16.4276 14.9799C16.2195 14.9116 16.0732 14.8694 15.9952 14.8336C15.7514 14.7686 15.5921 14.697 15.5108 14.6158C15.4328 14.5377 15.3808 14.4012 15.3645 14.2061C15.3483 14.1118 15.3418 13.9753 15.3418 13.7965V13.2926C15.3418 13.1008 15.3483 12.9024 15.3645 12.6911C15.5271 12.5318 15.6864 12.3563 15.8457 12.1645C15.9757 11.9889 16.0993 11.7938 16.2195 11.576C16.3398 11.3582 16.4309 11.1176 16.4959 10.8413C16.6064 10.3308 16.6747 9.92771 16.6975 9.64162C16.7202 9.35552 16.7332 9.18647 16.7332 9.13445C16.7332 9.04017 16.7787 8.9914 16.8665 9.00115C16.9543 9.00766 17.0453 8.95564 17.1429 8.8451C17.2079 8.78333 17.2501 8.61753 17.2761 8.34118C17.2989 8.06809 17.3119 7.76249 17.3119 7.42763C17.3119 7.08952 17.3054 6.76766 17.2891 6.46531C17.2729 6.15971 17.2664 5.93539 17.2664 5.78909C17.2339 5.32418 17.0973 4.93405 16.8568 4.62195C16.6194 4.30985 16.3138 4.11478 15.9432 4.0335C15.6213 3.96523 15.4003 3.94898 15.2637 3.96523C15.1369 3.98799 15.0329 3.97173 14.9516 3.90671C14.9029 3.8742 14.8541 3.83194 14.8053 3.77342C14.7566 3.71815 14.698 3.65638 14.6265 3.59461C14.555 3.53284 14.4542 3.46131 14.3242 3.38979C14.1941 3.31827 14.0251 3.25324 13.817 3.18822C13.6252 3.13946 13.3391 3.1167 12.962 3.1167C12.5848 3.1167 12.1882 3.15246 11.7688 3.21423C11.3527 3.27925 10.9398 3.38004 10.5432 3.51658C10.14 3.64988 9.82142 3.82543 9.58084 4.03025C9.11593 4.46265 8.81358 4.9373 8.67704 5.45097C8.54375 5.96139 8.44946 6.50107 8.4007 7.06026C8.36819 7.61944 8.34868 8.05184 8.33893 8.35744C8.33243 8.66304 8.39094 8.94914 8.52099 9.22223C8.56975 9.35227 8.64453 9.4368 8.74856 9.47581C8.8526 9.51482 8.91762 9.56684 8.93062 9.63186C8.94363 9.69688 8.98589 9.90821 9.05091 10.2691C9.11594 10.6267 9.25898 11.0266 9.48331 11.459C9.59384 11.6865 9.72714 11.8979 9.86693 12.0962C10.0132 12.2977 10.153 12.4701 10.2993 12.6131C10.4619 12.7887 10.6309 12.948 10.8065 13.0943V14.489C10.8065 14.6158 10.7155 14.7166 10.5302 14.7913C10.3448 14.8629 10.1335 14.9246 9.89294 14.9701C9.78241 15.0026 9.53858 15.0579 9.1712 15.1392C8.80383 15.2205 8.41045 15.3147 7.99431 15.4253C7.58143 15.5423 7.17504 15.6561 6.79466 15.7862C6.41104 15.9129 6.14445 16.0332 6.0014 16.1438C5.71531 16.3681 5.51049 16.5859 5.3902 16.7907C5.26991 16.9988 5.17888 17.1971 5.11386 17.3922C5.08135 17.4865 5.02608 17.7303 4.9448 18.1269C4.86677 18.5171 4.77574 18.9397 4.68146 19.3884C4.58718 19.837 4.50265 20.2564 4.42788 20.6498C4.35635 21.0399 4.31084 21.2935 4.29458 21.4073C4.27508 21.5373 4.29458 21.6511 4.34335 21.7551C4.39212 21.8592 4.46039 21.9502 4.54492 22.0185C4.6327 22.0933 4.72373 22.1518 4.82126 22.2005C4.91879 22.2493 4.99682 22.2786 5.06509 22.2948C5.36744 22.3761 5.79333 22.4541 6.32976 22.5224C6.86619 22.5939 7.48389 22.6557 8.18288 22.7142C8.88186 22.7727 9.64586 22.815 10.4814 22.8475C11.3169 22.8833 12.1915 22.8995 13.1018 22.8995C14.0153 22.8995 14.8834 22.8768 15.7091 22.8377C16.5381 22.7987 17.2924 22.7467 17.9849 22.6817C18.6774 22.6199 19.2821 22.5484 19.8022 22.4801C20.3257 22.4054 20.7158 22.3371 20.9921 22.2753C21.3172 22.1973 21.5188 22.0835 21.6066 21.9405C21.6944 21.8072 21.7301 21.6283 21.7139 21.4235ZM12.1199 19.7102L11.0373 16.8753L11.9996 16.108L12.6921 17.1906L12.1199 19.7102ZM14.3859 19.7135L13.7357 17.2134L14.438 16.1568L15.449 16.8785L14.3859 19.7135Z" fill="black"/>
<path d="M0.00295525 20.2661C0.0192107 20.1816 0.0419682 19.98 0.0777301 19.6614C0.113492 19.3428 0.159007 19.0047 0.211024 18.647C0.269544 18.2894 0.31831 17.9416 0.367076 17.6132C0.419093 17.2816 0.454855 17.054 0.480864 16.9305C0.549137 16.6931 0.630414 16.5013 0.718193 16.3485C0.809223 16.1957 0.994534 16.0494 1.26763 15.9129C1.36191 15.8706 1.50821 15.8121 1.70327 15.7373C1.89508 15.6626 2.11616 15.578 2.36649 15.4902C2.61357 15.4025 2.87366 15.3082 3.1435 15.2107C3.41334 15.1131 3.67017 15.0188 3.92051 14.9311C4.16434 14.84 4.38216 14.7685 4.56097 14.7132C4.73978 14.6547 4.86657 14.619 4.93484 14.5864C5.14291 14.5279 5.28271 14.4694 5.35098 14.3979C5.41925 14.3296 5.46152 14.2126 5.47777 14.0435C5.49078 13.9622 5.49728 13.8452 5.49728 13.6892V13.2535C5.49728 13.0877 5.49078 12.9154 5.47777 12.7366C5.33798 12.6 5.20143 12.4472 5.06163 12.2814C4.9511 12.1286 4.84381 11.9596 4.73978 11.7743C4.63574 11.5857 4.55772 11.3776 4.50245 11.1403C4.40817 10.6982 4.3464 10.3535 4.32689 10.1065C4.30738 9.85938 4.29763 9.71308 4.29763 9.67082C4.29763 9.58954 4.25862 9.54728 4.18384 9.55703C4.10907 9.56353 4.03104 9.51802 3.94651 9.42373C3.888 9.37172 3.85223 9.22542 3.83273 8.98809C3.81322 8.75401 3.80347 8.49067 3.80347 8.20133C3.80347 7.90873 3.80997 7.63239 3.82297 7.3723C3.83598 7.10897 3.84248 6.9139 3.84248 6.79036C3.87174 6.39048 3.98878 6.05237 4.19685 5.78578C4.40167 5.51594 4.665 5.34688 4.98361 5.27861C5.25995 5.22009 5.45176 5.20383 5.57205 5.22009C5.68259 5.2396 5.77037 5.22334 5.84189 5.16807C5.88416 5.14206 5.92642 5.0998 5.96869 5.05428C6.01095 5.00552 6.06297 4.9535 6.12149 4.89823C6.18326 4.84621 6.26779 4.78444 6.38157 4.72267C6.49211 4.6609 6.63841 4.60563 6.81722 4.54712C6.98302 4.50485 7.2301 4.48535 7.55521 4.48535C7.63974 4.48535 7.72427 4.48535 7.8088 4.49185C7.76978 4.53411 7.73402 4.57638 7.69826 4.62514C7.45768 4.93725 7.32113 5.32737 7.28862 5.79228C7.28862 5.93858 7.28212 6.15965 7.26587 6.4685C7.24961 6.77085 7.24311 7.09271 7.24311 7.43082C7.24311 7.76568 7.25286 8.07129 7.27887 8.34438C7.30163 8.61747 7.34714 8.78652 7.41217 8.84829C7.5097 8.95883 7.60398 9.01085 7.68851 9.00435C7.77629 8.99459 7.8218 9.04011 7.8218 9.13764C7.8218 9.18966 7.83155 9.35546 7.85756 9.64481C7.88032 9.9309 7.94859 10.334 8.05913 10.8445C8.12415 11.1175 8.21518 11.3581 8.33547 11.5792C8.45576 11.7938 8.5793 11.9921 8.70935 12.1676C8.8719 12.3595 9.0312 12.535 9.19051 12.6943C9.20676 12.9056 9.21326 13.104 9.21326 13.2958V13.7997C9.21326 13.9752 9.20676 14.115 9.19051 14.2093C9.17425 14.4044 9.12548 14.5409 9.04421 14.619C8.96618 14.7002 8.80363 14.7718 8.5598 14.8368C8.48177 14.8725 8.33547 14.9148 8.1274 14.9831C7.91933 15.0514 7.669 15.1294 7.38291 15.2367C7.09356 15.3407 6.79446 15.448 6.48236 15.5618C6.167 15.6756 5.8679 15.7828 5.57856 15.8869C5.29246 15.9909 5.03563 16.0884 4.8113 16.173C4.58698 16.2608 4.41792 16.329 4.30738 16.3778C3.98878 16.5371 3.77421 16.7094 3.67017 16.885C3.56614 17.0638 3.47186 17.2848 3.39383 17.5612C3.36132 17.7042 3.31906 17.9708 3.26054 18.3512C3.20527 18.7348 3.14675 19.138 3.08173 19.5508C3.01671 19.9637 2.96469 20.3571 2.92568 20.7277C2.89642 21.0073 2.87366 21.2089 2.8574 21.3324C2.412 21.2869 2.01537 21.2414 1.65775 21.1926C1.20911 21.1276 0.867742 21.0691 0.633665 21.0171C0.354072 20.9488 0.178514 20.8513 0.103739 20.7277C0.0192107 20.5977 -0.0100491 20.4416 0.00295525 20.2661ZM25.9921 20.1328C25.9758 20.0483 25.9531 19.8467 25.9173 19.5281C25.8815 19.2095 25.836 18.8714 25.784 18.5138C25.7255 18.1561 25.6767 17.8083 25.628 17.4799C25.5759 17.1483 25.5402 16.9207 25.5142 16.7972C25.4459 16.5599 25.3646 16.368 25.2768 16.2152C25.1858 16.0624 25.0005 15.9161 24.7274 15.7796C24.6299 15.7373 24.4868 15.6788 24.2918 15.604C24.1 15.5293 23.8789 15.4447 23.6285 15.357C23.3815 15.2692 23.1214 15.1749 22.8515 15.0774C22.5817 14.9798 22.3249 14.8855 22.0745 14.7978C21.8307 14.7067 21.6129 14.6352 21.4341 14.5799C21.2553 14.5214 21.1285 14.4857 21.0602 14.4532C20.8521 14.3946 20.7123 14.3361 20.6441 14.2646C20.5758 14.1963 20.5335 14.0793 20.5173 13.9102C20.5043 13.8289 20.4978 13.7119 20.4978 13.5559V13.1202C20.4978 12.9544 20.5043 12.7821 20.5173 12.6033C20.6571 12.4667 20.7936 12.3139 20.9334 12.1481C21.0439 11.9953 21.1512 11.8263 21.2553 11.641C21.3593 11.4524 21.4373 11.2443 21.4926 11.007C21.5869 10.5649 21.6454 10.2202 21.6681 9.97317C21.6877 9.72609 21.6974 9.57979 21.6974 9.53752C21.6974 9.45625 21.7364 9.41398 21.8112 9.42373C21.886 9.43024 21.9672 9.38472 22.0485 9.29044C22.107 9.23842 22.1428 9.09212 22.1623 8.8548C22.1818 8.62072 22.1916 8.35738 22.1916 8.06803C22.1916 7.77544 22.1851 7.4991 22.1721 7.23901C22.1591 6.97567 22.1526 6.78061 22.1526 6.65707C22.1233 6.25718 22.0063 5.92232 21.7982 5.65248C21.5934 5.38264 21.33 5.21359 21.0114 5.14531C20.7351 5.08679 20.5433 5.07054 20.423 5.08679C20.3124 5.1063 20.2247 5.09005 20.1531 5.03478C20.1109 5.00877 20.0686 4.96976 20.0296 4.92099C19.9873 4.87222 19.9353 4.82021 19.8736 4.76494C19.8118 4.71292 19.7273 4.65115 19.6135 4.58938C19.5029 4.52761 19.3566 4.47234 19.1778 4.41382C19.012 4.37156 18.7649 4.35205 18.4431 4.35205C18.3585 4.35205 18.274 4.35205 18.1895 4.35855C18.2285 4.40082 18.2643 4.44308 18.3 4.49185C18.5406 4.80395 18.6772 5.19408 18.7097 5.65898C18.7097 5.80528 18.7162 6.02636 18.7324 6.33521C18.7487 6.63756 18.7552 6.95942 18.7552 7.29753C18.7552 7.63239 18.7454 7.93799 18.7194 8.21108C18.6967 8.48417 18.6544 8.65323 18.5861 8.715C18.4886 8.82554 18.3943 8.87755 18.3098 8.87105C18.222 8.8613 18.1765 8.90681 18.1765 9.00435C18.1765 9.05636 18.1667 9.22217 18.1407 9.51151C18.118 9.79761 18.0497 10.2007 17.9392 10.7112C17.8709 10.9843 17.7831 11.2248 17.6628 11.4459C17.5425 11.6605 17.419 11.8588 17.2889 12.0344C17.1264 12.2262 16.9671 12.4017 16.8078 12.561C16.7915 12.7723 16.785 12.9707 16.785 13.1625V13.6664C16.785 13.842 16.7915 13.9817 16.8078 14.076C16.824 14.2711 16.8728 14.4076 16.9541 14.4857C17.0321 14.5669 17.1947 14.6385 17.4385 14.7035C17.5165 14.7392 17.6628 14.7815 17.8709 14.8498C18.079 14.9148 18.3293 14.9961 18.6154 15.1034C18.9047 15.2074 19.2038 15.3147 19.5159 15.4285C19.8313 15.5423 20.1304 15.6496 20.4197 15.7536C20.7058 15.8576 20.9627 15.9552 21.187 16.0397C21.4113 16.1275 21.5804 16.1957 21.6909 16.2445C22.0095 16.4038 22.2241 16.5761 22.3281 16.7517C22.4322 16.9272 22.5264 17.1516 22.6045 17.4279C22.637 17.5709 22.6792 17.8375 22.7378 18.2179C22.793 18.6015 22.8515 19.0047 22.9166 19.4176C22.9816 19.8304 23.0336 20.2238 23.0726 20.5944C23.1019 20.874 23.1246 21.0756 23.1409 21.1991C23.5863 21.1536 23.9829 21.1081 24.3405 21.0593C24.7892 20.9943 25.1305 20.9358 25.3646 20.8838C25.6442 20.8155 25.8198 20.718 25.8946 20.5944C25.9758 20.4644 26.0051 20.3083 25.9921 20.1328Z" fill="black"/>
</svg>
