<svg width="18" height="20" viewBox="0 0 18 20" fill="none" xmlns="http://www.w3.org/2000/svg">
<path d="M17.4268 18.3068C17.4073 18.2093 17.3812 17.9752 17.3422 17.6078C17.3032 17.2405 17.2512 16.8471 17.1862 16.431C17.1212 16.0181 17.0626 15.6149 17.0074 15.2313C16.9488 14.8477 16.9066 14.5843 16.8741 14.4413C16.796 14.1682 16.6985 13.9439 16.5977 13.7651C16.4937 13.5895 16.2791 13.4172 15.9605 13.2579C15.85 13.2091 15.6809 13.1409 15.4566 13.0531C15.2323 12.9653 14.9754 12.8678 14.6893 12.767C14.4033 12.663 14.1009 12.5557 13.7855 12.4419C13.4702 12.3281 13.1743 12.2208 12.885 12.1168C12.5989 12.0127 12.3486 11.9282 12.1405 11.8632C11.9324 11.7949 11.7861 11.7527 11.7081 11.7169C11.4643 11.6519 11.305 11.5803 11.2237 11.4991C11.1457 11.421 11.0937 11.2845 11.0774 11.0894C11.0611 10.9952 11.0546 10.8586 11.0546 10.6798V10.1759C11.0546 9.98407 11.0611 9.78575 11.0774 9.57443C11.24 9.41513 11.3993 9.23957 11.5586 9.04776C11.6886 8.8722 11.8121 8.67713 11.9324 8.45931C12.0527 8.24149 12.1438 8.00091 12.2088 7.72457C12.3193 7.21415 12.3876 6.81101 12.4103 6.52492C12.4331 6.23882 12.4461 6.06977 12.4461 6.01775C12.4461 5.92347 12.4916 5.8747 12.5794 5.88445C12.6672 5.89096 12.7582 5.83894 12.8557 5.7284C12.9208 5.66663 12.963 5.50083 12.989 5.22448C13.0118 4.95139 13.0248 4.64579 13.0248 4.31093C13.0248 3.97282 13.0183 3.65096 13.002 3.34861C12.9858 3.04301 12.9793 2.81869 12.9793 2.67239C12.9468 2.20748 12.8102 1.81735 12.5696 1.50525C12.3323 1.19315 12.0267 0.998081 11.6561 0.916804C11.3342 0.848532 11.1132 0.832276 10.9766 0.848532C10.8498 0.871289 10.7458 0.855034 10.6645 0.790012C10.6157 0.757502 10.567 0.715238 10.5182 0.656718C10.4694 0.60145 10.4109 0.539679 10.3394 0.477909C10.2679 0.416138 10.1671 0.344615 10.0371 0.273091C9.90701 0.201567 9.73796 0.136545 9.52989 0.0715237C9.33807 0.0227576 9.05198 0 8.67485 0C8.29773 0 7.9011 0.035762 7.48171 0.0975325C7.06557 0.162554 6.65268 0.263337 6.25605 0.399883C5.85292 0.533177 5.53431 0.708735 5.29373 0.913553C4.82883 1.34595 4.52648 1.8206 4.38993 2.33428C4.25664 2.84469 4.16235 3.38437 4.11359 3.94356C4.08108 4.50275 4.06157 4.93514 4.05182 5.24074C4.04532 5.54634 4.10383 5.83244 4.23388 6.10553C4.28264 6.23557 4.35742 6.3201 4.46145 6.35911C4.56549 6.39812 4.63051 6.45014 4.64351 6.51516C4.65652 6.58018 4.69878 6.79151 4.7638 7.15238C4.82883 7.50999 4.97187 7.90988 5.1962 8.34227C5.30673 8.56985 5.44003 8.78117 5.57982 8.97948C5.72612 9.18105 5.86592 9.35336 6.01222 9.4964C6.17477 9.67196 6.34383 9.83127 6.51939 9.97756V11.3723C6.51939 11.4991 6.42836 11.5999 6.24305 11.6746C6.05773 11.7462 5.84641 11.8079 5.60583 11.8534C5.4953 11.8859 5.25147 11.9412 4.88409 12.0225C4.51672 12.1038 4.12334 12.1981 3.7072 12.3086C3.29432 12.4256 2.88793 12.5394 2.50755 12.6695C2.12393 12.7962 1.85734 12.9165 1.71429 13.0271C1.4282 13.2514 1.22338 13.4692 1.10309 13.674C0.982799 13.8821 0.891769 14.0804 0.826747 14.2755C0.794236 14.3698 0.738968 14.6136 0.657691 15.0102C0.579665 15.4004 0.488635 15.823 0.394354 16.2717C0.300072 16.7203 0.215544 17.1397 0.140769 17.5331C0.0692455 17.9232 0.0237304 18.1768 0.00747496 18.2906C-0.0120315 18.4206 0.00747491 18.5344 0.0562411 18.6384C0.105007 18.7425 0.17328 18.8335 0.257808 18.9018C0.345587 18.9766 0.436617 19.0351 0.53415 19.0838C0.631682 19.1326 0.709708 19.1619 0.777981 19.1781C1.08033 19.2594 1.50622 19.3374 2.04265 19.4057C2.57908 19.4772 3.19678 19.539 3.89577 19.5975C4.59475 19.656 5.35875 19.6983 6.19428 19.7308C7.02981 19.7666 7.90435 19.7828 8.81465 19.7828C9.7282 19.7828 10.5962 19.7601 11.422 19.721C12.251 19.682 13.0053 19.63 13.6978 19.565C14.3902 19.5032 14.995 19.4317 15.5151 19.3634C16.0385 19.2887 16.4287 19.2204 16.705 19.1586C17.0301 19.0806 17.2317 18.9668 17.3195 18.8238C17.4073 18.6905 17.443 18.5116 17.4268 18.3068ZM7.83282 16.5935L6.75021 13.7586L7.71253 12.9913L8.40501 14.0739L7.83282 16.5935ZM10.0988 16.5968L9.44861 14.0967L10.1508 13.0401L11.1619 13.7618L10.0988 16.5968Z" fill="white"/>
</svg>
