<svg width="19" height="19" viewBox="0 0 19 19" fill="none" xmlns="http://www.w3.org/2000/svg">
<g clip-path="url(#clip0_1_8091)">
<path d="M9.50055 18.9997C7.3138 18.9931 5.19629 18.2323 3.50537 16.8456C1.81445 15.459 0.653678 13.5315 0.21894 11.3884C-0.215799 9.2453 0.102121 7.01783 1.11905 5.08191C2.13597 3.146 3.78963 1.62018 5.80095 0.761968C8.10767 -0.149182 10.6793 -0.122116 12.9663 0.837385C15.2533 1.79689 17.0744 3.61273 18.0406 5.89698C19.0067 8.18122 19.0412 10.7527 18.1368 13.0621C17.2323 15.3714 15.4606 17.2355 13.2001 18.2561C12.0295 18.7503 10.7712 19.0032 9.50055 18.9997ZM9.50055 1.48702C5.0759 1.48702 1.48784 5.09366 1.48784 9.49972C1.48784 13.9058 5.0759 17.5124 9.50055 17.5124C13.9252 17.5124 17.5133 13.9244 17.5133 9.49972C17.5133 5.07507 13.9066 1.48702 9.50055 1.48702Z" fill="#606060"/>
<path d="M5.94999 13.7943C5.80444 13.7923 5.66269 13.7476 5.54232 13.6657C5.42194 13.5839 5.32823 13.4685 5.27281 13.3339C5.21739 13.1993 5.20268 13.0514 5.23053 12.9085C5.25837 12.7657 5.32753 12.6341 5.42944 12.5302L12.5126 5.44701C12.6531 5.30648 12.8437 5.22754 13.0424 5.22754C13.2412 5.22754 13.4318 5.30648 13.5723 5.44701C13.7128 5.58753 13.7918 5.77812 13.7918 5.97685C13.7918 6.17558 13.7128 6.36617 13.5723 6.50669L6.48913 13.5713C6.41895 13.6429 6.335 13.6996 6.24235 13.7379C6.1497 13.7762 6.05025 13.7954 5.94999 13.7943Z" fill="#606060"/>
<path d="M13.0322 13.7944C12.836 13.7916 12.6489 13.7114 12.5116 13.5713L5.42845 6.48814C5.35887 6.41856 5.30368 6.33595 5.26602 6.24504C5.22837 6.15413 5.20898 6.0567 5.20898 5.95829C5.20898 5.75957 5.28793 5.56898 5.42845 5.42845C5.56898 5.28793 5.75957 5.20898 5.95829 5.20898C6.15702 5.20898 6.34761 5.28793 6.48814 5.42845L13.5527 12.5302C13.6546 12.6341 13.7238 12.7657 13.7516 12.9086C13.7795 13.0515 13.7648 13.1994 13.7093 13.334C13.6539 13.4686 13.5602 13.5839 13.4398 13.6658C13.3195 13.7476 13.1777 13.7923 13.0322 13.7944Z" fill="#606060"/>
</g>
<defs>
<clipPath id="clip0_1_8091">
<rect width="19" height="19" fill="white"/>
</clipPath>
</defs>
</svg>
