<svg width="10" height="10" viewBox="0 0 10 10" fill="none" xmlns="http://www.w3.org/2000/svg">
<g clip-path="url(#clip0_1_8100)">
<path d="M9.63345 4.64321C9.53882 4.64321 9.44807 4.6808 9.38116 4.74771C9.31425 4.81463 9.27666 4.90538 9.27666 5V8.21115C9.27666 8.49504 9.16388 8.76729 8.96315 8.96803C8.76241 9.16877 8.49016 9.28154 8.20627 9.28154H1.78397C1.50009 9.28154 1.22783 9.16877 1.0271 8.96803C0.826361 8.76729 0.713589 8.49504 0.713589 8.21115V1.78885C0.713589 1.64829 0.741275 1.5091 0.795067 1.37924C0.848859 1.24937 0.927703 1.13137 1.0271 1.03198C1.22783 0.831244 1.50009 0.718472 1.78397 0.718472H4.99512C5.08975 0.718472 5.1805 0.680881 5.24741 0.613969C5.31433 0.547057 5.35192 0.456305 5.35192 0.361677C5.35192 0.314822 5.34269 0.268426 5.32476 0.225138C5.30683 0.18185 5.28055 0.142517 5.24741 0.109385C5.21428 0.0762541 5.17495 0.0499728 5.13166 0.0320422C5.08837 0.0141116 5.04198 0.00488281 4.99512 0.00488281L1.78397 0.00488281C1.31083 0.00488281 0.857073 0.192836 0.522513 0.527396C0.187954 0.861956 0 1.31572 0 1.78885L0 8.21115C0 8.68429 0.187954 9.13805 0.522513 9.47261C0.857073 9.80717 1.31083 9.99513 1.78397 9.99513H8.20627C8.67941 9.99513 9.13317 9.80717 9.46773 9.47261C9.80229 9.13805 9.99024 8.68429 9.99024 8.21115V5C9.99024 4.90538 9.95265 4.81463 9.88574 4.74771C9.81883 4.6808 9.72808 4.64321 9.63345 4.64321Z" fill="#404040"/>
<path d="M3.10319 6.90574C3.17109 6.97157 3.26195 7.00838 3.35652 7.00838C3.45109 7.00838 3.54195 6.97157 3.60984 6.90574L9.89656 0.611887C9.93069 0.579854 9.9579 0.541165 9.97649 0.498209C9.99509 0.455252 10.0047 0.40894 10.0047 0.362131C10.0047 0.315322 9.99509 0.26901 9.97649 0.226054C9.9579 0.183097 9.93069 0.144408 9.89656 0.112375C9.86339 0.0789333 9.82393 0.0523899 9.78045 0.0342759C9.73697 0.0161619 9.69034 0.00683594 9.64324 0.00683594C9.59614 0.00683594 9.5495 0.0161619 9.50602 0.0342759C9.46254 0.0523899 9.42308 0.0789333 9.38991 0.112375L3.10319 6.42764C3.04547 6.4939 3.01367 6.57881 3.01367 6.66669C3.01367 6.75457 3.04547 6.83948 3.10319 6.90574Z" fill="#404040"/>
</g>
<defs>
<clipPath id="clip0_1_8100">
<rect width="10" height="10" fill="white"/>
</clipPath>
</defs>
</svg>
