<svg width="714" height="593" viewBox="0 0 714 593" fill="none" xmlns="http://www.w3.org/2000/svg">
<path d="M456.032 305.113C449.265 302.577 433.474 300.04 433.474 300.04L430.937 323.151C430.373 328.224 434.038 333.016 439.114 333.861C475.206 340.062 505.376 355 530.754 385.439C556.131 416.16 564.026 448.854 563.462 485.494C563.462 490.567 567.127 495.076 572.485 495.358L587.429 496.768C593.069 497.331 598.144 492.822 598.144 487.185C598.426 444.063 585.455 400.659 556.131 365.146C536.393 341.189 511.58 323.997 484.229 313.005" fill="#E1EAFF"/>
<path d="M156.299 402.068L100.188 502.686C97.6498 507.478 101.315 513.114 106.673 513.114H224.536C228.483 513.114 231.867 510.014 231.867 505.787L156.299 402.068Z" fill="#E1EAFF"/>
<path d="M434.32 455.336C419.375 455.336 406.969 467.738 406.969 483.239C406.969 498.74 419.093 511.142 434.32 511.142C449.264 511.142 461.671 498.74 461.671 483.239C461.671 468.019 449.546 455.336 434.32 455.336Z" fill="#126DFF"/>
<path d="M434.32 512.551C418.53 512.551 405.56 499.304 405.56 483.239C405.56 467.174 418.53 453.927 434.32 453.927C450.111 453.927 463.081 467.174 463.081 483.239C463.081 499.586 450.111 512.551 434.32 512.551ZM434.32 456.746C419.94 456.746 408.379 468.583 408.379 483.239C408.379 497.895 419.94 509.732 434.32 509.732C448.701 509.732 460.261 497.895 460.261 483.239C460.261 468.583 448.701 456.746 434.32 456.746Z" fill="white"/>
<path d="M347.474 430.534C351.422 434.48 357.625 435.325 362.136 431.943C382.438 417.006 407.251 407.986 434.32 407.986C461.389 407.986 486.203 417.005 506.504 432.225C511.016 435.607 517.219 435.044 521.167 431.098L533.855 418.133C538.649 413.342 538.085 405.168 532.445 401.222C505.658 382.057 467.875 370.219 434.32 370.219C400.766 370.219 364.392 383.184 337.887 402.631C332.53 406.577 331.966 414.469 336.477 419.542L347.474 430.534Z" fill="#126DFF"/>
<path d="M512.989 435.607C510.452 435.607 507.914 434.762 505.658 433.071C484.793 417.569 459.979 409.114 434.32 409.114C408.661 409.114 383.848 417.287 362.982 432.789C357.907 436.453 350.858 435.889 346.346 431.38L335.349 420.106C332.812 417.569 331.684 413.905 331.966 410.241C332.248 406.577 334.221 403.477 337.041 401.222C364.392 381.211 401.612 368.528 434.038 368.528C468.156 368.528 506.222 380.366 533.009 399.813C535.829 402.068 537.803 405.168 538.085 408.832C538.367 412.496 536.957 416.16 534.419 418.978L521.73 431.943C519.757 434.198 516.373 435.607 512.989 435.607ZM434.32 406.577C460.825 406.577 485.92 415.033 507.35 431.098C511.298 433.916 516.655 433.634 520.039 429.97L532.727 417.006C534.701 415.033 535.829 412.214 535.547 409.114C535.265 406.295 533.855 403.759 531.599 402.068C505.094 383.184 467.874 371.347 434.32 371.347C402.176 371.347 365.52 383.748 338.733 403.477C336.477 405.168 335.067 407.705 334.785 410.523C334.503 413.342 335.631 416.16 337.605 418.133L348.602 429.407C351.985 433.071 357.625 433.634 361.572 430.534C382.72 414.751 408.097 406.577 434.32 406.577Z" fill="white"/>
<path d="M604.912 504.095H603.784L586.584 502.404C580.098 501.841 575.023 496.204 575.023 489.44C575.869 443.499 564.026 407.423 538.085 375.856C511.298 343.726 478.308 325.124 434.321 317.514C427.553 316.387 423.042 310.186 423.888 303.704L426.708 277.211C426.708 276.929 426.99 276.365 427.272 276.365C427.553 276.083 427.835 276.083 428.399 276.083C429.245 276.083 447.009 278.902 454.622 281.72C455.468 282.002 455.75 282.848 455.468 283.411C455.186 284.257 454.34 284.539 453.777 284.257C447.573 281.72 434.039 279.465 429.527 278.902L426.708 303.986C426.144 309.059 429.809 313.85 434.885 314.696C479.718 322.588 513.272 341.471 540.341 374.165C566.846 406.295 578.971 442.935 578.125 489.721C578.125 494.795 582.072 499.304 587.148 499.868L604.348 501.559C607.167 501.841 609.987 500.995 611.961 499.022C613.935 497.049 615.063 494.513 615.063 491.976C615.627 440.399 598.708 391.076 567.41 353.309C545.698 327.097 518.347 307.086 485.921 293.839C485.075 293.558 484.793 292.712 485.075 291.867C485.357 291.021 486.203 290.739 487.049 291.021C520.039 304.55 547.672 324.561 569.666 351.336C600.964 389.385 618.164 439.271 617.6 491.694C617.6 495.076 616.19 498.459 613.371 500.995C611.115 502.968 608.013 504.095 604.912 504.095Z" fill="#3370FF"/>
<path d="M435.448 212.104C364.11 212.104 299.258 238.88 249.067 283.129C244.274 287.357 243.992 294.967 248.785 299.758L262.884 313.287C267.113 317.514 273.881 317.514 278.11 313.569C322.379 273.828 371.16 250.717 435.448 250.717C499.455 250.717 550.774 273.828 595.325 313.287C599.836 317.233 606.885 316.951 611.115 312.723L623.24 299.758C627.469 295.249 627.187 287.921 622.394 283.693C572.203 239.162 506.787 212.104 435.448 212.104Z" fill="#B5CEFF"/>
<path d="M270.496 317.796C267.395 317.796 264.011 316.669 261.755 314.132L247.657 300.604C245.119 298.067 243.709 294.685 243.709 291.021C243.709 287.639 245.401 284.257 247.939 281.72C300.385 236.061 366.93 210.695 435.448 210.695C504.248 210.695 570.793 236.061 623.239 282.566C625.777 284.82 627.469 287.921 627.469 291.585C627.751 294.967 626.341 298.349 624.085 300.886L611.96 313.85C607.167 318.924 599.554 319.205 594.196 314.696C547.108 272.983 495.225 252.69 435.448 252.69C376.235 252.69 326.608 272.419 278.956 315.26C276.7 316.951 273.598 317.796 270.496 317.796ZM435.448 213.514C367.494 213.514 301.795 238.598 249.913 284.257C247.939 285.948 246.529 288.484 246.529 291.303C246.529 294.121 247.657 296.658 249.631 298.631L263.729 312.159C267.395 315.823 273.316 315.823 277.264 312.441C325.48 269.319 375.671 249.308 435.73 249.308C496.353 249.308 548.799 269.883 596.452 312.159C600.4 315.823 606.603 315.541 610.269 311.596L622.393 298.631C624.367 296.658 625.213 294.121 624.931 291.303C624.931 288.484 623.521 286.23 621.547 284.257C569.383 238.88 503.402 213.514 435.448 213.514Z" fill="white"/>
<path d="M206.772 296.376C206.772 296.376 211.284 316.951 220.307 327.661C229.048 338.653 213.539 353.872 213.539 353.872C213.539 353.872 215.513 367.965 237.507 366.837C259.5 365.71 262.884 349.645 262.884 349.645C262.884 349.645 239.198 339.216 246.53 333.58C253.579 328.225 258.09 321.742 254.425 299.195C250.759 276.647 234.405 274.674 220.588 277.774C206.208 281.157 206.772 296.376 206.772 296.376Z" fill="#795101"/>
<path d="M235.25 368.246C214.103 368.246 212.129 354.154 212.129 353.872C212.129 353.309 212.129 353.027 212.411 352.745C212.693 352.463 227.073 338.089 219.178 328.506C210.155 317.514 205.644 297.503 205.362 296.658V296.376C205.362 296.094 205.08 279.747 220.024 276.365C229.893 274.11 238.352 274.956 244.555 279.184C250.477 283.129 254.142 289.612 255.552 298.913C259.218 320.897 255.27 328.506 247.093 334.707C246.247 335.271 246.247 335.834 246.247 336.116C246.529 339.498 256.398 345.135 263.165 348.235C263.729 348.517 264.011 349.081 264.011 349.926C264.011 350.208 260.346 367.401 237.506 368.246H235.25ZM214.949 354.154C215.513 356.691 219.178 366.273 237.224 365.428C254.988 364.582 259.782 353.872 260.91 350.49C256.398 348.517 243.991 342.035 243.427 336.68C243.427 335.552 243.427 334.143 245.401 332.734C251.887 327.943 256.398 322.306 252.732 299.476C251.323 291.021 247.939 285.102 242.864 281.438C236.096 276.929 227.073 277.774 220.588 279.184C208.463 282.002 208.181 294.685 208.181 296.094C208.745 298.067 213.257 316.669 221.434 326.533C229.893 337.525 217.768 351.336 214.949 354.154Z" fill="#5C3A00"/>
<path d="M149.532 409.959C149.532 409.959 129.512 439.835 136.843 451.109C144.174 462.382 196.338 500.713 196.338 500.713L191.545 452.236L178.856 442.09L183.368 436.735L149.532 409.959Z" fill="#795101"/>
<path d="M196.057 502.123C195.775 502.123 195.493 502.123 195.211 501.841C192.955 500.15 142.765 463.228 135.433 451.954C127.538 440.117 147.276 410.523 148.122 409.114C148.404 408.832 148.686 408.55 148.968 408.55C149.25 408.55 149.814 408.55 150.096 408.832L183.932 435.325C184.214 435.607 184.496 435.889 184.496 436.171C184.496 436.453 184.496 437.016 184.214 437.298L180.548 441.526L192.109 450.827C192.391 451.109 192.673 451.391 192.673 451.672L197.467 500.15C197.467 500.713 197.185 501.277 196.903 501.559C196.621 502.123 196.339 502.123 196.057 502.123ZM149.814 411.932C143.893 420.951 132.614 442.09 137.971 450.263C144.174 459.564 183.932 489.721 194.365 497.613L189.853 452.8L177.447 442.935C177.165 442.653 176.883 442.372 176.883 442.09C176.883 441.808 176.883 441.244 177.165 440.962L180.83 436.735L149.814 411.932Z" fill="#5C3A00"/>
<path d="M206.772 296.376C206.772 296.376 196.339 300.604 200.287 309.341C204.234 318.36 212.975 314.696 212.975 314.696L206.772 296.376Z" fill="#805000"/>
<path d="M208.745 316.951C205.08 316.951 201.132 315.541 198.876 309.905C197.749 307.086 197.467 304.55 198.594 302.013C200.568 297.222 205.926 294.967 206.208 294.967C206.49 294.685 207.054 294.967 207.336 294.967L208.181 295.812L214.385 314.132C214.667 314.696 214.385 315.541 213.539 315.823C212.129 316.669 210.437 316.951 208.745 316.951ZM205.926 298.349C204.516 299.194 202.26 300.886 201.132 303.14C200.286 304.831 200.568 306.804 201.414 308.777C203.952 314.696 208.745 314.414 211.001 313.85L205.926 298.349Z" fill="#5C3A00"/>
<path d="M194.083 252.972C193.519 253.817 200.851 316.951 231.021 309.623C261.192 302.295 237.224 240.289 237.224 240.289C237.224 240.289 209.028 234.652 194.083 252.972Z" fill="#1E232A"/>
<path d="M224.536 311.877C231.022 317.514 244.274 303.704 265.986 311.877L324.917 338.934L312.228 340.626L338.452 381.493C338.452 381.493 406.124 359.791 385.822 336.116C365.239 312.723 232.995 249.59 229.048 255.79C225.382 261.709 240.326 266.5 230.458 263.118C223.972 260.864 218.333 260.018 217.487 262.273C214.949 269.601 232.431 274.674 222.562 273.265C218.615 272.701 215.231 272.983 214.385 274.956C211.284 281.438 241.172 296.658 241.172 296.658C241.172 296.658 218.051 306.241 224.536 311.877Z" fill="#795101"/>
<path d="M338.169 382.902C337.605 382.902 337.323 382.62 337.041 382.339L310.818 341.471C310.536 341.189 310.536 340.626 310.818 340.062C311.1 339.498 311.382 339.216 311.946 339.216L320.123 338.089L265.703 313.287C253.578 308.777 243.991 311.314 236.942 313.287C231.303 314.696 227.073 316.105 223.69 313.005C221.998 311.596 221.998 309.905 222.28 309.059C223.126 303.986 232.994 298.913 238.07 296.658C229.047 291.867 210.155 280.875 213.257 274.392C214.103 272.701 216.076 271.856 218.896 271.856H220.588C217.204 268.192 215.23 264.528 216.358 261.991C216.64 261.145 217.486 260.018 219.742 259.736C221.716 259.454 224.817 260.018 228.201 261.145C227.073 258.891 226.791 256.918 227.919 255.227C228.201 254.663 229.047 254.381 229.893 254.099C243.145 252.972 366.93 312.441 386.667 335.271C390.333 339.498 391.743 344.29 390.333 349.081C384.976 367.965 340.706 382.339 338.733 382.902H338.169ZM314.483 341.753L339.015 379.802C345.782 377.547 383.284 364.019 387.795 348.235C388.923 344.29 387.795 340.626 384.694 336.962C364.392 313.287 242.581 256.354 230.739 256.354H230.457C230.175 257.2 230.739 258.609 231.585 260.3C231.867 260.864 232.149 261.427 232.713 261.991C240.608 265.091 249.067 269.883 251.322 273.265C252.45 274.956 252.168 276.365 251.604 276.929C251.322 277.211 250.759 278.056 249.631 278.056C245.965 278.056 236.096 270.728 231.021 264.246C226.791 262.555 222.562 261.709 220.306 261.991C219.742 261.991 219.178 262.273 219.178 262.555C218.614 263.964 220.306 267.346 225.099 272.137C233.558 273.828 244.273 278.62 246.529 282.284C247.375 283.693 247.093 285.102 246.811 285.384C245.119 288.203 240.326 285.948 238.916 285.384C234.968 283.411 228.765 279.465 223.971 274.674C219.46 273.828 216.64 274.392 216.076 275.52C214.667 278.62 228.483 288.203 242.299 295.249C242.863 295.531 243.145 296.094 243.145 296.658C243.145 297.222 242.863 297.785 242.299 297.785C236.096 300.322 225.945 305.677 225.381 309.341C225.381 309.623 225.381 310.186 225.945 310.75C227.919 312.441 231.021 311.877 236.378 310.186C243.709 308.214 253.86 305.395 266.831 310.468L325.762 337.244C326.326 337.525 326.608 338.089 326.608 338.653C326.608 339.216 326.044 339.78 325.48 339.78L314.483 341.753ZM229.611 276.365C236.942 282.002 243.145 284.82 244.273 284.257C244.273 282.848 238.352 278.902 229.611 276.365ZM236.942 267.064C241.454 271.292 246.811 274.956 248.785 275.238C248.785 275.238 248.785 274.956 248.503 274.956C247.093 272.701 242.299 269.601 236.942 267.064Z" fill="#5C3A00"/>
<path d="M330.274 490.849L337.887 512.551H194.083L183.086 417.287L185.342 438.144L146.712 407.141C146.712 407.141 161.939 374.165 178.011 364.582C178.857 364.019 191.545 357.536 213.539 353.59C235.532 349.645 312.228 340.626 312.228 340.626L341.835 384.03L299.257 401.504L293.618 385.721L314.484 445.19L330.274 490.849Z" fill="#FFC60A"/>
<path d="M337.887 513.96H194.083C193.237 513.96 192.673 513.396 192.673 512.833L184.214 438.708L145.584 408.268C145.02 407.987 145.02 407.141 145.302 406.577C145.866 405.168 161.093 373.038 177.165 363.455C177.165 363.455 189.853 356.409 213.257 352.463C234.968 348.799 311.382 339.498 311.946 339.498C312.51 339.498 313.074 339.78 313.356 340.062L342.962 383.466C343.244 383.748 343.244 384.312 343.244 384.593C343.244 384.875 342.962 385.439 342.398 385.439L301.231 402.35L339.579 511.987C339.861 512.551 339.579 512.833 339.297 513.396C338.733 513.678 338.451 513.96 337.887 513.96ZM195.493 511.142H336.195L329.146 491.412L292.208 386.003C291.926 385.157 292.208 384.593 293.054 384.312C293.9 384.03 294.464 384.312 294.746 385.157L299.821 399.531L339.297 383.466L311.382 342.317C302.923 343.444 234.122 351.618 213.539 355.282C190.981 359.227 178.575 365.992 178.575 365.992C164.758 374.447 150.942 401.222 148.404 406.859L183.932 434.762L181.958 417.287C181.958 416.442 182.522 415.878 183.086 415.596C183.932 415.596 184.496 416.16 184.778 416.724L187.034 437.58L195.493 511.142Z" fill="white"/>
<path d="M238.353 435.889C239.481 440.962 244.556 444.344 249.632 443.499C254.989 442.653 258.655 437.58 257.809 431.943C256.963 426.588 251.887 422.642 246.53 423.488C243.71 424.052 241.173 425.743 239.763 427.997L238.071 417.569C240.045 416.16 242.582 415.314 245.12 415.033C255.271 413.342 264.858 420.388 266.55 430.816C268.242 440.962 261.192 450.827 251.041 452.236C241.173 453.927 231.868 447.163 229.894 437.58L225.946 412.778L234.123 408.832L238.353 435.889ZM231.304 446.599C231.304 446.599 234.969 451.954 241.173 453.645L242.019 459L233.841 462.946L231.304 446.599Z" fill="#FEF9EC"/>
<path d="M214.666 402.068L270.214 393.331L281.493 464.919L226.227 473.656L214.666 402.068Z" fill="#FEF9EC"/>
<path d="M485.357 514.806H385.54C384.694 514.806 384.131 514.242 384.131 513.396C384.131 512.551 384.694 511.987 385.54 511.987H485.075C485.921 511.987 486.485 512.551 486.485 513.396C486.485 514.242 485.921 514.806 485.357 514.806ZM363.829 515.369H164.195C163.067 515.369 162.221 514.524 162.221 513.396C162.221 512.269 163.067 511.423 164.195 511.423H363.829C364.957 511.423 365.803 512.269 365.803 513.396C365.803 514.524 364.957 515.369 363.829 515.369ZM165.887 302.013C165.605 302.013 165.041 301.731 164.759 301.449C159.966 296.376 160.811 289.612 161.375 283.693C162.221 276.647 162.503 272.701 156.864 271.574C154.89 271.01 153.198 271.292 151.788 272.419C148.405 275.238 147.841 282.848 147.841 285.666C148.123 286.23 147.559 287.075 146.713 287.075C145.867 287.075 145.303 286.511 145.303 285.666C145.303 285.102 144.739 274.674 150.097 270.165C152.07 268.473 154.608 267.91 157.71 268.755C165.887 270.728 165.041 277.492 164.195 283.975C163.631 289.612 163.067 295.531 167.015 299.758C167.579 300.322 167.579 301.167 167.015 301.731C166.451 302.013 166.169 302.013 165.887 302.013ZM174.91 307.932C174.91 309.059 174.064 310.186 172.654 310.186C171.526 310.186 170.398 309.341 170.398 307.932C170.398 306.804 171.244 305.677 172.654 305.677C173.782 305.677 174.91 306.804 174.91 307.932Z" fill="#3370FF"/>
<path d="M214.757 556.737V573.249C214.757 573.809 214.709 574.265 214.613 574.617C214.533 574.969 214.381 575.241 214.157 575.433C213.933 575.641 213.613 575.785 213.197 575.865C212.797 575.961 212.277 576.033 211.637 576.081L209.765 576.201L209.549 575.409L211.469 575.265C211.997 575.217 212.421 575.161 212.741 575.097C213.061 575.049 213.309 574.945 213.485 574.785C213.661 574.641 213.781 574.441 213.845 574.185C213.909 573.913 213.941 573.553 213.941 573.105V557.553H198.197V576.321H197.381V556.737H214.757ZM205.109 571.377C204.837 570.801 204.517 570.145 204.149 569.409C203.797 568.673 203.429 567.913 203.045 567.129C202.517 568.265 201.965 569.345 201.389 570.369C200.829 571.393 200.253 572.353 199.661 573.249L199.037 572.817C200.301 570.897 201.493 568.721 202.613 566.289C202.325 565.713 202.037 565.153 201.749 564.609C201.477 564.049 201.213 563.521 200.957 563.025C200.701 562.529 200.461 562.073 200.237 561.657C200.013 561.225 199.821 560.857 199.661 560.553L200.309 560.169C200.613 560.729 201.005 561.481 201.485 562.425C201.965 563.353 202.477 564.345 203.021 565.401C203.837 563.545 204.573 561.625 205.229 559.641L205.925 559.905C205.557 561.009 205.165 562.089 204.749 563.145C204.349 564.201 203.917 565.233 203.453 566.241C203.885 567.121 204.301 567.969 204.701 568.785C205.117 569.601 205.477 570.329 205.781 570.969L205.109 571.377ZM212.285 572.721C211.917 571.985 211.477 571.129 210.965 570.153C210.469 569.177 209.957 568.185 209.429 567.177C208.917 568.233 208.365 569.281 207.773 570.321C207.181 571.345 206.549 572.345 205.877 573.321L205.253 572.841C205.957 571.801 206.613 570.737 207.221 569.649C207.845 568.561 208.429 567.457 208.973 566.337C208.429 565.313 207.917 564.361 207.437 563.481C206.973 562.585 206.581 561.865 206.261 561.321L206.885 560.889C207.173 561.401 207.533 562.065 207.965 562.881C208.397 563.681 208.869 564.553 209.381 565.497C209.813 564.537 210.213 563.585 210.581 562.641C210.949 561.681 211.277 560.729 211.565 559.785L212.261 560.049C211.605 562.177 210.789 564.273 209.813 566.337C210.389 567.425 210.949 568.497 211.493 569.553C212.037 570.593 212.509 571.513 212.909 572.313L212.285 572.721ZM233.75 563.529C234.614 564.137 235.566 564.665 236.606 565.113C237.662 565.561 238.846 565.961 240.158 566.313L239.894 567.105C238.518 566.737 237.278 566.313 236.174 565.833C235.07 565.337 234.062 564.737 233.15 564.033C231.406 565.409 229.166 566.569 226.43 567.513L226.118 566.769C227.414 566.305 228.582 565.817 229.622 565.305C230.678 564.777 231.638 564.185 232.502 563.529C231.91 563.017 231.358 562.457 230.846 561.849C230.334 561.225 229.846 560.529 229.382 559.761C229.03 560.321 228.662 560.865 228.278 561.393C227.91 561.905 227.542 562.385 227.174 562.833L226.622 562.257C227.054 561.761 227.478 561.209 227.894 560.601C228.326 559.977 228.726 559.337 229.094 558.681C229.478 558.025 229.822 557.377 230.126 556.737C230.446 556.081 230.702 555.465 230.894 554.889L231.662 555.153C231.534 555.505 231.39 555.873 231.23 556.257C231.07 556.625 230.894 557.001 230.702 557.385H237.83V558.153C237.302 559.225 236.702 560.209 236.03 561.105C235.374 561.985 234.614 562.793 233.75 563.529ZM219.878 562.953C219.75 562.969 219.63 562.985 219.518 563.001C219.406 563.017 219.246 563.057 219.038 563.121L218.822 562.305C219.03 562.225 219.174 562.161 219.254 562.113C219.35 562.065 219.438 561.993 219.518 561.897C219.758 561.577 220.046 561.153 220.382 560.625C220.734 560.081 221.094 559.497 221.462 558.873C221.83 558.233 222.19 557.577 222.542 556.905C222.894 556.217 223.206 555.577 223.478 554.985L224.174 555.297C223.902 555.889 223.598 556.513 223.262 557.169C222.926 557.825 222.574 558.465 222.206 559.089C221.854 559.713 221.51 560.289 221.174 560.817C220.838 561.345 220.542 561.777 220.286 562.113C220.462 562.113 220.726 562.105 221.078 562.089C221.43 562.073 221.798 562.057 222.182 562.041C222.582 562.009 222.966 561.985 223.334 561.969C223.702 561.953 223.998 561.937 224.222 561.921C224.638 561.233 225.03 560.569 225.398 559.929C225.766 559.273 226.086 558.689 226.358 558.177L227.054 558.561C226.686 559.249 226.238 560.049 225.71 560.961C225.182 561.857 224.63 562.761 224.054 563.673C223.494 564.569 222.95 565.417 222.422 566.217C221.894 567.001 221.454 567.609 221.102 568.041C221.358 568.009 221.726 567.961 222.206 567.897C222.686 567.817 223.174 567.745 223.67 567.681C224.166 567.601 224.614 567.537 225.014 567.489C225.414 567.425 225.662 567.385 225.758 567.369L225.806 568.185C225.742 568.185 225.462 568.225 224.966 568.305C224.486 568.369 223.942 568.441 223.334 568.521C222.742 568.601 222.174 568.689 221.63 568.785C221.086 568.865 220.734 568.921 220.574 568.953C220.414 568.985 220.278 569.017 220.166 569.049C220.054 569.065 219.862 569.113 219.59 569.193L219.374 568.353C219.662 568.257 219.862 568.169 219.974 568.089C220.102 568.009 220.23 567.897 220.358 567.753C220.742 567.241 221.238 566.537 221.846 565.641C222.47 564.729 223.102 563.753 223.742 562.713C223.454 562.729 223.11 562.753 222.71 562.785C222.31 562.801 221.918 562.825 221.534 562.857C221.15 562.873 220.798 562.889 220.478 562.905C220.174 562.921 219.974 562.937 219.878 562.953ZM229.79 559.065C230.75 560.681 231.854 562.001 233.102 563.025C233.918 562.353 234.638 561.617 235.262 560.817C235.886 560.017 236.454 559.129 236.966 558.153H230.318C230.158 558.441 229.982 558.745 229.79 559.065ZM228.446 568.137H237.35V576.393H236.534V574.785H229.238V576.393H228.446V568.137ZM229.238 568.929V574.089H236.534V568.929H229.238ZM226.862 572.145L226.886 572.553C226.326 572.681 225.694 572.825 224.99 572.985C224.302 573.129 223.582 573.281 222.83 573.441C222.094 573.585 221.366 573.729 220.646 573.873C219.942 574.017 219.302 574.137 218.726 574.233L218.582 573.417C219.142 573.321 219.774 573.209 220.478 573.081C221.198 572.937 221.926 572.793 222.662 572.649C223.414 572.489 224.142 572.329 224.846 572.169C225.566 572.009 226.214 571.857 226.79 571.713L226.862 572.145ZM254.591 574.833C256.191 574.865 257.775 574.873 259.343 574.857C260.911 574.841 262.495 574.793 264.095 574.713L263.879 575.553C262.327 575.633 260.783 575.681 259.247 575.697C257.711 575.713 256.167 575.705 254.615 575.673C253.719 575.657 252.903 575.585 252.167 575.457C251.447 575.345 250.783 575.137 250.175 574.833C249.567 574.545 249.007 574.137 248.495 573.609C247.999 573.065 247.535 572.369 247.103 571.521C246.735 572.561 246.223 573.497 245.567 574.329C244.911 575.161 244.095 575.993 243.119 576.825L242.519 576.153C243.287 575.513 243.943 574.881 244.487 574.257C245.031 573.633 245.487 572.969 245.855 572.265C246.223 571.561 246.503 570.793 246.695 569.961C246.887 569.129 247.015 568.177 247.079 567.105L247.919 567.177C247.855 568.377 247.695 569.473 247.439 570.465C247.775 571.249 248.135 571.905 248.519 572.433C248.919 572.961 249.343 573.385 249.791 573.705C250.255 574.025 250.759 574.265 251.303 574.425C251.863 574.585 252.471 574.697 253.127 574.761V565.113H243.431V564.273H252.935V559.737H245.279V558.921H252.935V555.105L253.775 555.153V558.921H261.431V559.737H253.775V564.273H263.327V565.113H253.967V569.433H261.479V570.249H253.967V574.809C254.063 574.825 254.159 574.833 254.255 574.833C254.367 574.833 254.479 574.833 254.591 574.833ZM276.536 568.425C276.152 568.905 275.696 569.433 275.168 570.009C274.64 570.569 274.088 571.129 273.512 571.689C272.936 572.249 272.36 572.777 271.784 573.273C271.224 573.753 270.728 574.153 270.296 574.473C270.568 574.457 271.008 574.441 271.616 574.425C272.24 574.409 272.96 574.385 273.776 574.353C274.592 574.337 275.456 574.321 276.368 574.305C277.296 574.273 278.192 574.249 279.056 574.233C279.92 574.201 280.72 574.177 281.456 574.161C282.192 574.145 282.776 574.129 283.208 574.113C282.52 573.425 281.832 572.761 281.144 572.121C280.456 571.465 279.88 570.929 279.416 570.513L279.992 569.937C280.392 570.289 280.864 570.729 281.408 571.257C281.968 571.769 282.536 572.305 283.112 572.865C283.688 573.409 284.232 573.937 284.744 574.449C285.272 574.977 285.704 575.425 286.04 575.793L285.464 576.417C285.256 576.193 285.024 575.953 284.768 575.697C284.528 575.441 284.264 575.169 283.976 574.881C283.768 574.881 283.36 574.889 282.752 574.905C282.144 574.921 281.416 574.945 280.568 574.977C279.736 575.009 278.824 575.041 277.832 575.073C276.84 575.105 275.856 575.137 274.88 575.169C273.904 575.201 272.984 575.233 272.12 575.265C271.272 575.297 270.56 575.321 269.984 575.337C269.76 575.353 269.536 575.369 269.312 575.385C269.104 575.401 268.768 575.441 268.304 575.505L268.112 574.617C268.512 574.553 268.776 574.497 268.904 574.449C269.032 574.417 269.144 574.369 269.24 574.305C269.624 574.065 270.088 573.713 270.632 573.249C271.192 572.785 271.768 572.281 272.36 571.737C272.952 571.177 273.52 570.609 274.064 570.033C274.624 569.441 275.112 568.905 275.528 568.425H266.48V567.585H276.632V563.313H268.592V562.521H276.632V558.225C275.096 558.385 273.592 558.521 272.12 558.633C270.664 558.745 269.336 558.825 268.136 558.873L268.064 558.081C268.912 558.049 269.816 558.001 270.776 557.937C271.752 557.857 272.752 557.777 273.776 557.697C274.8 557.601 275.84 557.497 276.896 557.385C277.952 557.273 278.976 557.161 279.968 557.049C280.976 556.921 281.936 556.801 282.848 556.689C283.76 556.561 284.6 556.433 285.368 556.305L285.536 557.121C284.416 557.297 283.152 557.473 281.744 557.649C280.352 557.825 278.904 557.993 277.4 558.153V562.521H285.416V563.313H277.4V567.585H287.552V568.425H276.536ZM297.977 575.025C298.457 574.993 298.841 574.945 299.129 574.881C299.433 574.833 299.665 574.745 299.825 574.617C299.985 574.489 300.089 574.313 300.137 574.089C300.201 573.849 300.233 573.521 300.233 573.105V563.457L307.889 558.105H291.137V557.241H309.329V558.105L301.073 563.913V573.321C301.073 573.833 301.033 574.241 300.953 574.545C300.873 574.849 300.721 575.089 300.497 575.265C300.289 575.441 299.993 575.569 299.609 575.649C299.241 575.729 298.761 575.793 298.169 575.841L295.985 576.009L295.745 575.169L297.977 575.025ZM316.226 577.593C316.93 576.569 317.482 575.561 317.882 574.569C318.298 573.593 318.506 572.673 318.506 571.809H319.586C319.586 572.337 319.506 572.873 319.346 573.417C319.202 573.945 319.01 574.457 318.77 574.953C318.546 575.449 318.29 575.921 318.002 576.369C317.714 576.833 317.434 577.241 317.162 577.593H316.226ZM358.643 570.441H355.091V573.465C355.091 573.977 355.043 574.385 354.947 574.689C354.867 575.009 354.707 575.257 354.467 575.433C354.243 575.625 353.931 575.761 353.531 575.841C353.131 575.937 352.627 576.009 352.019 576.057L350.675 576.177L350.435 575.361L351.827 575.265C352.339 575.217 352.747 575.161 353.051 575.097C353.371 575.033 353.619 574.929 353.795 574.785C353.971 574.657 354.091 574.473 354.155 574.233C354.219 573.993 354.251 573.673 354.251 573.273V570.441H341.483V576.393H340.643V570.441H337.091V569.649H340.643V560.817H347.459V557.721H338.099V556.953H357.635V557.721H348.251V560.817H355.091V569.649H358.643V570.441ZM341.483 561.585V565.137H347.459V561.585H341.483ZM348.251 561.585V565.137H354.251V561.585H348.251ZM341.483 569.649H347.459V565.929H341.483V569.649ZM354.251 569.649V565.929H348.251V569.649H354.251ZM380.54 555.201V573.897C380.54 574.313 380.5 574.649 380.42 574.905C380.34 575.161 380.204 575.361 380.012 575.505C379.82 575.665 379.564 575.777 379.244 575.841C378.924 575.921 378.532 575.985 378.068 576.033L376.796 576.153L376.532 575.385L377.924 575.289C378.292 575.257 378.596 575.217 378.836 575.169C379.076 575.121 379.26 575.041 379.388 574.929C379.532 574.817 379.628 574.665 379.676 574.473C379.74 574.297 379.772 574.049 379.772 573.729V555.153L380.54 555.201ZM363.26 556.449H373.268V561.873H363.98V564.441C363.98 566.633 363.732 568.657 363.236 570.513C362.74 572.369 362.076 574.097 361.244 575.697L360.548 575.337C361.38 573.785 362.036 572.113 362.516 570.321C363.012 568.513 363.26 566.521 363.26 564.345V556.449ZM363.98 557.217V561.105H372.524V557.217H363.98ZM376.676 571.113H375.908V557.265L376.676 557.313V571.113ZM369.452 565.689H373.148V572.169C373.148 572.553 373.116 572.865 373.052 573.105C372.988 573.329 372.876 573.513 372.716 573.657C372.572 573.785 372.372 573.881 372.116 573.945C371.876 574.009 371.58 574.057 371.228 574.089L370.676 574.137L370.436 573.417L371.036 573.369C371.324 573.353 371.556 573.329 371.732 573.297C371.924 573.249 372.068 573.177 372.164 573.081C372.276 572.985 372.348 572.857 372.38 572.697C372.428 572.537 372.452 572.321 372.452 572.049V566.457H369.452V576.489H368.732V566.457H365.732V574.209H365.036V565.689H368.732V562.833L369.452 562.881V565.689ZM395.861 564.153H384.629V563.409H387.893C387.861 563.089 387.821 562.713 387.773 562.281C387.725 561.833 387.669 561.385 387.605 560.937C387.541 560.489 387.485 560.065 387.437 559.665C387.389 559.265 387.349 558.945 387.317 558.705H385.349V557.961H390.101C389.957 557.449 389.805 556.921 389.645 556.377C389.485 555.833 389.333 555.353 389.189 554.937L389.909 554.841C390.069 555.273 390.229 555.769 390.389 556.329C390.565 556.873 390.733 557.417 390.893 557.961H395.213V558.705H393.077C393.045 559.009 393.005 559.361 392.957 559.761C392.925 560.161 392.885 560.577 392.837 561.009C392.789 561.441 392.741 561.865 392.693 562.281C392.645 562.697 392.597 563.073 392.549 563.409H395.861V564.153ZM405.821 564.633H402.485V576.513H401.717V564.633H397.661V564.753C397.661 566.289 397.621 567.625 397.541 568.761C397.477 569.897 397.325 570.921 397.085 571.833C396.861 572.745 396.541 573.593 396.125 574.377C395.709 575.177 395.165 576.009 394.493 576.873L393.773 576.465C394.445 575.633 394.981 574.841 395.381 574.089C395.797 573.321 396.117 572.489 396.341 571.593C396.565 570.697 396.709 569.697 396.773 568.593C396.853 567.473 396.893 566.153 396.893 564.633V557.937C398.253 557.761 399.613 557.513 400.973 557.193C402.333 556.873 403.517 556.521 404.525 556.137L404.789 556.905C404.325 557.097 403.813 557.281 403.253 557.457C402.693 557.617 402.101 557.777 401.477 557.937C400.853 558.081 400.213 558.217 399.557 558.345C398.917 558.473 398.285 558.577 397.661 558.657V563.841H405.821V564.633ZM388.013 558.705C388.045 558.961 388.085 559.297 388.133 559.713C388.197 560.113 388.261 560.537 388.325 560.985C388.389 561.433 388.445 561.873 388.493 562.305C388.541 562.737 388.581 563.105 388.613 563.409H391.781C391.829 563.073 391.877 562.697 391.925 562.281C391.989 561.865 392.045 561.441 392.093 561.009C392.157 560.577 392.205 560.161 392.237 559.761C392.285 559.361 392.325 559.009 392.357 558.705H388.013ZM390.653 568.521V574.113C390.653 574.497 390.621 574.809 390.557 575.049C390.493 575.289 390.373 575.473 390.197 575.601C390.037 575.745 389.805 575.849 389.501 575.913C389.197 575.977 388.813 576.033 388.349 576.081L387.437 576.177L387.197 575.361L388.205 575.265C388.589 575.233 388.893 575.193 389.117 575.145C389.341 575.113 389.509 575.049 389.621 574.953C389.733 574.857 389.805 574.721 389.837 574.545C389.869 574.385 389.885 574.161 389.885 573.873V568.521H384.965V567.753H389.885V564.513L390.653 564.561V567.753H395.429V568.521H390.653ZM388.109 569.841C387.725 570.753 387.229 571.681 386.621 572.625C386.013 573.553 385.405 574.361 384.797 575.049L384.197 574.641C384.805 573.969 385.405 573.185 385.997 572.289C386.589 571.377 387.069 570.465 387.437 569.553L388.109 569.841ZM394.445 573.633C394.317 573.425 394.149 573.153 393.941 572.817C393.733 572.465 393.509 572.121 393.269 571.785C393.029 571.433 392.797 571.105 392.573 570.801C392.349 570.481 392.157 570.233 391.997 570.057L392.573 569.649C392.733 569.825 392.925 570.073 393.149 570.393C393.373 570.697 393.605 571.025 393.845 571.377C394.085 571.713 394.309 572.049 394.517 572.385C394.741 572.721 394.917 572.993 395.045 573.201L394.445 573.633ZM429.086 557.193V558.057H418.718V576.537H417.878V558.057H408.446V557.193H429.086ZM420.11 562.089C420.654 562.473 421.278 562.929 421.982 563.457C422.702 563.985 423.414 564.529 424.118 565.089C424.822 565.649 425.486 566.193 426.11 566.721C426.734 567.233 427.23 567.665 427.598 568.017L427.094 568.737C426.71 568.369 426.206 567.929 425.582 567.417C424.974 566.889 424.318 566.345 423.614 565.785C422.926 565.225 422.23 564.681 421.526 564.153C420.822 563.625 420.198 563.177 419.654 562.809L420.11 562.089ZM452.663 560.865H446.951C447.031 562.673 447.127 564.281 447.239 565.689C447.367 567.081 447.511 568.305 447.671 569.361C447.847 570.417 448.039 571.321 448.247 572.073C448.471 572.809 448.727 573.433 449.015 573.945C449.287 574.441 449.527 574.761 449.735 574.905C449.959 575.065 450.183 575.145 450.407 575.145C450.583 575.145 450.759 575.001 450.935 574.713C451.127 574.441 451.311 573.913 451.487 573.129C451.567 572.761 451.647 572.361 451.727 571.929C451.807 571.497 451.879 571.057 451.943 570.609L452.615 570.969C452.551 571.449 452.471 571.937 452.375 572.433C452.279 572.929 452.183 573.361 452.087 573.729C451.847 574.641 451.591 575.257 451.319 575.577C451.047 575.913 450.735 576.081 450.383 576.081C450.063 576.081 449.727 575.969 449.375 575.745C449.023 575.521 448.663 575.073 448.295 574.401C448.007 573.873 447.751 573.225 447.527 572.457C447.303 571.673 447.103 570.737 446.927 569.649C446.751 568.561 446.599 567.297 446.471 565.857C446.343 564.401 446.231 562.737 446.135 560.865H437.855V560.049H446.087V560.025C446.055 559.465 446.023 558.913 445.991 558.369C445.975 557.809 445.959 557.297 445.943 556.833C445.943 556.369 445.935 555.977 445.919 555.657C445.919 555.321 445.919 555.097 445.919 554.985L446.711 555.033C446.711 555.161 446.711 555.377 446.711 555.681C446.727 555.985 446.743 556.353 446.759 556.785C446.775 557.217 446.791 557.713 446.807 558.273C446.839 558.817 446.871 559.385 446.903 559.977V560.049H452.663V560.865ZM436.031 560.601C435.839 560.281 435.607 559.921 435.335 559.521C435.063 559.121 434.791 558.729 434.519 558.345C434.247 557.945 433.975 557.569 433.703 557.217C433.431 556.849 433.199 556.553 433.007 556.329L433.655 555.801C433.863 556.041 434.103 556.345 434.375 556.713C434.647 557.065 434.927 557.441 435.215 557.841C435.503 558.241 435.775 558.641 436.031 559.041C436.303 559.425 436.535 559.777 436.727 560.097L436.031 560.601ZM450.935 559.137C450.759 558.945 450.535 558.713 450.263 558.441C449.991 558.169 449.711 557.897 449.423 557.625C449.135 557.353 448.855 557.105 448.583 556.881C448.327 556.657 448.127 556.489 447.983 556.377L448.463 555.825C448.607 555.921 448.807 556.089 449.063 556.329C449.335 556.553 449.615 556.801 449.903 557.073C450.191 557.329 450.471 557.601 450.743 557.889C451.015 558.161 451.239 558.393 451.415 558.585L450.935 559.137ZM438.551 570.681C438.519 570.713 438.431 570.817 438.287 570.993C438.143 571.153 437.959 571.361 437.735 571.617C437.527 571.857 437.295 572.129 437.039 572.433C436.799 572.721 436.559 573.001 436.319 573.273C436.095 573.529 435.887 573.761 435.695 573.969C435.519 574.177 435.391 574.321 435.311 574.401C435.231 574.465 435.135 574.569 435.023 574.713C434.927 574.873 434.775 575.105 434.567 575.409L433.991 574.857C434.215 574.569 434.351 574.353 434.399 574.209C434.447 574.049 434.471 573.873 434.471 573.681V563.961H431.135V563.145H435.263V573.345C435.423 573.169 435.647 572.913 435.935 572.577C436.223 572.225 436.511 571.881 436.799 571.545C437.103 571.193 437.375 570.873 437.615 570.585C437.855 570.297 437.999 570.129 438.047 570.081L438.551 570.681ZM446.183 572.241L446.207 572.673C445.663 572.833 445.015 573.001 444.263 573.177C443.511 573.337 442.727 573.497 441.911 573.657C441.111 573.817 440.327 573.969 439.559 574.113C438.791 574.241 438.119 574.345 437.543 574.425L437.423 573.657C437.919 573.577 438.503 573.481 439.175 573.369C439.847 573.241 440.543 573.113 441.263 572.985V566.169H437.783V565.353H445.487V566.169H442.031V572.817C442.799 572.657 443.543 572.497 444.263 572.337C444.983 572.177 445.607 572.017 446.135 571.857L446.183 572.241ZM476.288 560.865H470.576C470.656 562.673 470.752 564.281 470.864 565.689C470.992 567.081 471.136 568.305 471.296 569.361C471.472 570.417 471.664 571.321 471.872 572.073C472.096 572.809 472.352 573.433 472.64 573.945C472.912 574.441 473.152 574.761 473.36 574.905C473.584 575.065 473.808 575.145 474.032 575.145C474.208 575.145 474.384 575.001 474.56 574.713C474.752 574.441 474.936 573.913 475.112 573.129C475.192 572.761 475.272 572.361 475.352 571.929C475.432 571.497 475.504 571.057 475.568 570.609L476.24 570.969C476.176 571.449 476.096 571.937 476 572.433C475.904 572.929 475.808 573.361 475.712 573.729C475.472 574.641 475.216 575.257 474.944 575.577C474.672 575.913 474.36 576.081 474.008 576.081C473.688 576.081 473.352 575.969 473 575.745C472.648 575.521 472.288 575.073 471.92 574.401C471.632 573.873 471.376 573.225 471.152 572.457C470.928 571.673 470.728 570.737 470.552 569.649C470.376 568.561 470.224 567.297 470.096 565.857C469.968 564.401 469.856 562.737 469.76 560.865H461.48V560.049H469.712V560.025C469.68 559.465 469.648 558.913 469.616 558.369C469.6 557.809 469.584 557.297 469.568 556.833C469.568 556.369 469.56 555.977 469.544 555.657C469.544 555.321 469.544 555.097 469.544 554.985L470.336 555.033C470.336 555.161 470.336 555.377 470.336 555.681C470.352 555.985 470.368 556.353 470.384 556.785C470.4 557.217 470.416 557.713 470.432 558.273C470.464 558.817 470.496 559.385 470.528 559.977V560.049H476.288V560.865ZM459.656 560.601C459.464 560.281 459.232 559.921 458.96 559.521C458.688 559.121 458.416 558.729 458.144 558.345C457.872 557.945 457.6 557.569 457.328 557.217C457.056 556.849 456.824 556.553 456.632 556.329L457.28 555.801C457.488 556.041 457.728 556.345 458 556.713C458.272 557.065 458.552 557.441 458.84 557.841C459.128 558.241 459.4 558.641 459.656 559.041C459.928 559.425 460.16 559.777 460.352 560.097L459.656 560.601ZM474.56 559.137C474.384 558.945 474.16 558.713 473.888 558.441C473.616 558.169 473.336 557.897 473.048 557.625C472.76 557.353 472.48 557.105 472.208 556.881C471.952 556.657 471.752 556.489 471.608 556.377L472.088 555.825C472.232 555.921 472.432 556.089 472.688 556.329C472.96 556.553 473.24 556.801 473.528 557.073C473.816 557.329 474.096 557.601 474.368 557.889C474.64 558.161 474.864 558.393 475.04 558.585L474.56 559.137ZM462.176 570.681C462.144 570.713 462.056 570.817 461.912 570.993C461.768 571.153 461.584 571.361 461.36 571.617C461.152 571.857 460.92 572.129 460.664 572.433C460.424 572.721 460.184 573.001 459.944 573.273C459.72 573.529 459.512 573.761 459.32 573.969C459.144 574.177 459.016 574.321 458.936 574.401C458.856 574.465 458.76 574.569 458.648 574.713C458.552 574.873 458.4 575.105 458.192 575.409L457.616 574.857C457.84 574.569 457.976 574.353 458.024 574.209C458.072 574.049 458.096 573.873 458.096 573.681V563.961H454.76V563.145H458.888V573.345C459.048 573.169 459.272 572.913 459.56 572.577C459.848 572.225 460.136 571.881 460.424 571.545C460.728 571.193 461 570.873 461.24 570.585C461.48 570.297 461.624 570.129 461.672 570.081L462.176 570.681ZM469.808 572.241L469.832 572.673C469.288 572.833 468.64 573.001 467.888 573.177C467.136 573.337 466.352 573.497 465.536 573.657C464.736 573.817 463.952 573.969 463.184 574.113C462.416 574.241 461.744 574.345 461.168 574.425L461.048 573.657C461.544 573.577 462.128 573.481 462.8 573.369C463.472 573.241 464.168 573.113 464.888 572.985V566.169H461.408V565.353H469.112V566.169H465.656V572.817C466.424 572.657 467.168 572.497 467.888 572.337C468.608 572.177 469.232 572.017 469.76 571.857L469.808 572.241Z" fill="#5B5B5B"/>
</svg>
