<svg width="28" height="28" viewBox="0 0 28 28" fill="none" xmlns="http://www.w3.org/2000/svg">
<g clip-path="url(#clip0_569_2927)">
<path d="M5.72739 13.9959C5.72922 13.6039 5.81214 13.2165 5.97093 12.8581C6.12973 12.4996 6.36097 12.1779 6.6501 11.9132L18.9572 0.494452C19.3097 0.176287 19.7677 0.000173909 20.2426 0.00017395C20.7175 0.000173992 21.1755 0.176287 21.528 0.494452C21.6956 0.644787 21.8296 0.828736 21.9214 1.03431C22.0131 1.23989 22.0606 1.46249 22.0606 1.68761C22.0606 1.91274 22.0131 2.13534 21.9214 2.34091C21.8296 2.54649 21.6956 2.73044 21.528 2.88078L9.54806 13.9998L21.5274 25.1194C21.695 25.2697 21.829 25.4537 21.9207 25.6593C22.0125 25.8648 22.0599 26.0874 22.0599 26.3126C22.0599 26.5377 22.0125 26.7603 21.9207 26.9659C21.829 27.1714 21.695 27.3554 21.5274 27.5057C21.1749 27.8239 20.7169 28 20.242 28C19.7671 28 19.3091 27.8239 18.9565 27.5057L6.65392 16.0857C6.36374 15.8201 6.13163 15.4973 5.97219 15.1377C5.81274 14.7781 5.72939 14.3893 5.72739 13.9959Z" fill="#1B1B1B"/>
</g>
<defs>
<clipPath id="clip0_569_2927">
<rect width="28" height="28" fill="white" transform="translate(28 28) rotate(-180)"/>
</clipPath>
</defs>
</svg>
