<svg width="17" height="12" viewBox="0 0 17 12" fill="none" xmlns="http://www.w3.org/2000/svg">
<path d="M6.44388 11.5002C6.0534 11.5007 5.6784 11.3475 5.39997 11.0737L0.446401 6.20949C0.30673 6.07241 0.195425 5.90916 0.118843 5.72907C0.0422607 5.54898 0.00190007 5.35557 6.55657e-05 5.15988C-0.00363938 4.76466 0.149806 4.38416 0.426645 4.10208C0.703484 3.82001 1.08104 3.65945 1.47625 3.65575C1.87147 3.65204 2.25197 3.80549 2.53405 4.08233L6.44388 7.92177L14.0683 0.434467C14.2075 0.295758 14.3728 0.185959 14.5546 0.111397C14.7364 0.0368343 14.9311 -0.00101794 15.1276 2.08135e-05C15.3241 0.00105957 15.5185 0.0409687 15.6995 0.117449C15.8805 0.193929 16.0446 0.305469 16.1823 0.445642C16.32 0.585815 16.4286 0.751852 16.5019 0.934186C16.5751 1.11652 16.6116 1.31155 16.6091 1.50803C16.6067 1.70452 16.5654 1.89858 16.4876 2.07903C16.4098 2.25948 16.2971 2.42277 16.156 2.55947L7.48779 11.0729C7.20967 11.3473 6.83455 11.5008 6.44388 11.5002Z" fill="#6B6B6B"/>
</svg>
