<svg width="70" height="70" viewBox="0 0 70 70" fill="none" xmlns="http://www.w3.org/2000/svg">
<path d="M59.6341 43.0371V65.174H54.9668V43.0371H59.6341Z" fill="#8F94A2"/>
<path d="M57.29 36.9741L67.7213 47.4008L64.4216 50.7006L57.29 43.5736L50.163 50.7006L46.8633 47.4008L57.29 36.9741Z" fill="#8F94A2"/>
<path d="M35.2529 26.8462V54.6538H12.1172V49.9865L30.5856 49.9819V26.8462H35.2529Z" fill="#32CF91"/>
<path d="M10.2578 4.6626H46.9799L59.5956 16.1348V30.3326H54.9283V18.1977L45.1784 9.32987H14.9251V60.4972L44.7536 60.5019V65.1691H10.2578V4.6626Z" fill="#8F94A2"/>
<path d="M43.7793 6.99658V20.5083H57.2911L43.7793 6.99658Z" fill="#8F94A2"/>
<path d="M2.78125 22.1792H28.2506V47.6485H2.78125V22.1792Z" fill="#32CF91"/>
<path d="M6.63281 29.3337L9.93258 26.0293L23.7617 39.8631L20.4619 43.1629L6.63281 29.3337Z" fill="white"/>
<path d="M23.7617 29.3337L20.4619 26.0293L6.63281 39.8631L9.93258 43.1629L23.7617 29.3337Z" fill="white"/>
</svg>
