<svg width="14" height="14" viewBox="0 0 14 14" fill="none" xmlns="http://www.w3.org/2000/svg">
<g clip-path="url(#clip0_569_3159)">
<path d="M12.6558 5.06693C12.8332 5.06693 13.0035 5.10071 13.1668 5.16827C13.3302 5.23583 13.4702 5.32591 13.5868 5.4385C13.7035 5.5511 13.7968 5.68622 13.8668 5.84386C13.9368 6.0015 13.9718 6.16589 13.9718 6.33704C13.9718 6.5172 13.9368 6.68384 13.8668 6.83698C13.7968 6.99011 13.7035 7.12298 13.5868 7.23557C13.4702 7.34817 13.3302 7.43825 13.1668 7.50581C13.0035 7.57337 12.8332 7.60715 12.6558 7.60715H8.72184V11.404C8.72184 11.5841 8.68684 11.7508 8.61684 11.9039C8.54684 12.057 8.45351 12.1899 8.33684 12.3025C8.22018 12.4151 8.08018 12.5052 7.91684 12.5727C7.75351 12.6403 7.58318 12.6741 7.40584 12.6741C7.21918 12.6741 7.04651 12.6403 6.88784 12.5727C6.72918 12.5052 6.59151 12.4151 6.47484 12.3025C6.35818 12.1899 6.26484 12.057 6.19484 11.9039C6.12484 11.7508 6.08984 11.5841 6.08984 11.404V7.60715H2.15584C1.96918 7.60715 1.79651 7.57337 1.63784 7.50581C1.47918 7.43825 1.34151 7.34817 1.22484 7.23557C1.10818 7.12298 1.01484 6.99011 0.944844 6.83698C0.874844 6.68384 0.839844 6.5172 0.839844 6.33704C0.839844 6.16589 0.874844 6.0015 0.944844 5.84386C1.01484 5.68622 1.10818 5.5511 1.22484 5.4385C1.34151 5.32591 1.47918 5.23583 1.63784 5.16827C1.79651 5.10071 1.96918 5.06693 2.15584 5.06693H6.08984V1.27011C6.08984 1.09896 6.12484 0.934567 6.19484 0.776929C6.26484 0.619291 6.35818 0.484173 6.47484 0.371575C6.59151 0.258976 6.72918 0.168898 6.88784 0.101339C7.04651 0.0337795 7.21918 0 7.40584 0C7.76984 0 8.08018 0.123858 8.33684 0.371575C8.59351 0.619291 8.72184 0.918803 8.72184 1.27011V5.06693H12.6558Z" fill="white"/>
</g>
<defs>
<clipPath id="clip0_569_3159">
<rect width="14" height="13.5118" fill="white"/>
</clipPath>
</defs>
</svg>
