<svg width="26" height="26" viewBox="0 0 26 26" fill="none" xmlns="http://www.w3.org/2000/svg">
<path d="M11.9173 19.5002C7.69232 19.5002 4.33398 16.1418 4.33398 11.9168C4.33398 7.69183 7.69232 4.3335 11.9173 4.3335C16.1423 4.3335 19.5007 7.69183 19.5007 11.9168C19.5007 16.1418 16.1423 19.5002 11.9173 19.5002ZM11.9173 17.3335C14.9507 17.3335 17.334 14.9502 17.334 11.9168C17.334 8.8835 14.9507 6.50016 11.9173 6.50016C8.88399 6.50016 6.50065 8.8835 6.50065 11.9168C6.50065 14.9502 8.88399 17.3335 11.9173 17.3335ZM18.309 17.3335L21.3423 20.3668L19.8257 21.8835L16.7923 18.8502L18.309 17.3335Z" fill="#444444"/>
</svg>
