<svg width="26" height="26" viewBox="0 0 26 26" fill="none" xmlns="http://www.w3.org/2000/svg">
<path d="M22.6727 3.25C23.158 3.25 23.5697 3.419 23.9077 3.757C24.2457 4.095 24.4147 4.50667 24.4147 4.992V6.318C24.4147 6.80333 24.2457 7.215 23.9077 7.553C23.5697 7.891 23.158 8.06 22.6727 8.06H3.38067C2.89534 8.06 2.48367 7.891 2.14567 7.553C1.80767 7.215 1.63867 6.80333 1.63867 6.318V4.992C1.63867 4.50667 1.80767 4.095 2.14567 3.757C2.48367 3.419 2.89534 3.25 3.38067 3.25H22.6727ZM22.6727 11.388C23.158 11.388 23.5697 11.557 23.9077 11.895C24.2457 12.233 24.4147 12.6447 24.4147 13.13V14.456C24.4147 14.9413 24.2457 15.353 23.9077 15.691C23.5697 16.029 23.158 16.198 22.6727 16.198H3.38067C2.89534 16.198 2.48367 16.029 2.14567 15.691C1.80767 15.353 1.63867 14.9413 1.63867 14.456V13.13C1.63867 12.6447 1.80767 12.233 2.14567 11.895C2.48367 11.557 2.89534 11.388 3.38067 11.388H22.6727ZM22.6727 19.526C23.158 19.526 23.5697 19.695 23.9077 20.033C24.2457 20.371 24.4147 20.7827 24.4147 21.268V22.594C24.4147 23.0793 24.2457 23.491 23.9077 23.829C23.5697 24.167 23.158 24.336 22.6727 24.336H3.38067C2.89534 24.336 2.48367 24.167 2.14567 23.829C1.80767 23.491 1.63867 23.0793 1.63867 22.594V21.268C1.63867 20.7827 1.80767 20.371 2.14567 20.033C2.48367 19.695 2.89534 19.526 3.38067 19.526H22.6727Z" fill="#535353"/>
</svg>
