<svg width="27" height="27" viewBox="0 0 27 27" fill="none" xmlns="http://www.w3.org/2000/svg">
<path d="M23.2875 2.19336H3.7125C2.3625 2.19336 1.26562 3.29023 1.26562 4.55586V19.9121C1.26562 21.1777 2.3625 22.2746 3.7125 22.2746H10.4625C10.4625 22.2746 10.6312 22.4434 10.8844 22.7809C10.9688 22.8652 11.0531 22.9496 11.1375 23.1184C11.1375 23.1184 11.3062 23.3715 11.3906 23.4559C12.15 24.6371 12.7406 25.2277 13.6688 25.2277C14.5969 25.2277 15.2719 24.6371 16.0312 23.4559C16.6219 22.5277 16.7906 22.2746 16.7906 22.2746H23.3719C24.7219 22.2746 25.8188 21.1777 25.8188 19.9121V4.55586C25.7344 3.20586 24.6375 2.19336 23.2875 2.19336ZM24.5531 19.9121C24.5531 20.5871 24.0469 21.0934 23.3719 21.0934H16.7062C16.5375 21.0934 16.4531 21.0934 16.2844 21.1777C16.0312 21.3465 15.7781 21.5152 15.525 21.9371C15.4406 22.1059 14.9344 22.8652 14.9344 22.8652C14.4281 23.709 14.0063 24.0465 13.6688 24.0465C13.3313 24.0465 12.9937 23.709 12.4031 22.8652C12.3187 22.7809 12.2344 22.5277 12.15 22.5277C12.0656 22.359 11.9813 22.2746 11.8969 22.1902C11.3906 21.5152 11.0531 21.1777 10.4625 21.1777H3.7125C3.0375 21.1777 2.53125 20.6715 2.53125 19.9965V4.64023C2.53125 3.96523 3.12188 3.45898 3.79688 3.45898H23.3719C24.0469 3.45898 24.6375 3.96523 24.6375 4.64023V19.9121H24.5531ZM5.82188 12.7402C5.82188 12.9175 5.85679 13.0931 5.92464 13.2569C5.99248 13.4206 6.09192 13.5695 6.21728 13.6948C6.34264 13.8202 6.49146 13.9196 6.65525 13.9875C6.81904 14.0553 6.99459 14.0902 7.17188 14.0902C7.34916 14.0902 7.52471 14.0553 7.6885 13.9875C7.85229 13.9196 8.00111 13.8202 8.12647 13.6948C8.25183 13.5695 8.35127 13.4206 8.41911 13.2569C8.48696 13.0931 8.52188 12.9175 8.52188 12.7402C8.52188 12.3822 8.37964 12.0388 8.12647 11.7856C7.87329 11.5325 7.52992 11.3902 7.17188 11.3902C6.81383 11.3902 6.47045 11.5325 6.21728 11.7856C5.96411 12.0388 5.82188 12.3822 5.82188 12.7402ZM12.15 12.7402C12.15 13.0983 12.2922 13.4417 12.5454 13.6948C12.7986 13.948 13.142 14.0902 13.5 14.0902C13.858 14.0902 14.2014 13.948 14.4546 13.6948C14.7078 13.4417 14.85 13.0983 14.85 12.7402C14.85 12.563 14.8151 12.3874 14.7472 12.2236C14.6794 12.0598 14.58 11.911 14.4546 11.7856C14.3292 11.6603 14.1804 11.5608 14.0166 11.493C13.8528 11.4252 13.6773 11.3902 13.5 11.3902C13.3227 11.3902 13.1472 11.4252 12.9834 11.493C12.8196 11.5608 12.6708 11.6603 12.5454 11.7856C12.42 11.911 12.3206 12.0598 12.2528 12.2236C12.1849 12.3874 12.15 12.563 12.15 12.7402ZM18.3937 12.7402C18.3937 13.0983 18.536 13.4417 18.7892 13.6948C19.0423 13.948 19.3857 14.0902 19.7437 14.0902C20.1018 14.0902 20.4452 13.948 20.6983 13.6948C20.9515 13.4417 21.0938 13.0983 21.0938 12.7402C21.0938 12.3822 20.9515 12.0388 20.6983 11.7856C20.4452 11.5325 20.1018 11.3902 19.7437 11.3902C19.3857 11.3902 19.0423 11.5325 18.7892 11.7856C18.536 12.0388 18.3937 12.3822 18.3937 12.7402Z" fill="#272636"/>
</svg>
