<svg width="27" height="27" viewBox="0 0 27 27" fill="none" xmlns="http://www.w3.org/2000/svg">
<path d="M13.3852 26.7692C11.6275 26.7693 9.88694 26.4232 8.26297 25.7506C6.639 25.078 5.16342 24.0921 3.92048 22.8492C2.67754 21.6063 1.69158 20.1308 1.0189 18.5068C0.346224 16.8829 0 15.1424 0 13.3846C0 11.6269 0.346224 9.88634 1.0189 8.2624C1.69158 6.63847 2.67754 5.16293 3.92048 3.92004C5.16342 2.67716 6.639 1.69127 8.26297 1.01867C9.88694 0.346063 11.6275 -8.08399e-05 13.3852 1.41615e-08C16.9349 0.000163297 20.3392 1.4104 22.8492 3.92048C25.3592 6.43056 26.7692 9.8349 26.7692 13.3846C26.7692 16.9343 25.3592 20.3387 22.8492 22.8487C20.3392 25.3588 16.9349 26.7691 13.3852 26.7692ZM13.3852 18.8924L18.5539 21.7478L17.5679 15.6957L21.7506 11.4104L15.9707 10.527L13.383 5.017L10.7998 10.527L5.01985 11.4104L9.20254 15.6957L8.21431 21.75L13.3875 18.8924H13.3852Z" fill="#F88E00"/>
</svg>
