<svg width="124" height="34" viewBox="0 0 124 34" fill="none" xmlns="http://www.w3.org/2000/svg">
<mask id="mask0_438_620" style="mask-type:alpha" maskUnits="userSpaceOnUse" x="0" y="0" width="124" height="34">
<rect width="124" height="34" fill="#D9D9D9"/>
</mask>
<g mask="url(#mask0_438_620)">
<path d="M4 9.21585H10.7875C10.4167 10.3268 8.9012 14.8351 7.6759 17.9426C6.28938 21.5009 4.14511 26.6693 4.14511 26.6693C4.14511 26.6693 7.94997 26.9269 9.54608 25.3812C11.1422 23.8355 13.9314 15.7206 13.9314 15.7206H24.8623V23.7711H16.527V27.2167H30.0537V11.9691H15.2211L16.3497 9.21585H32.472V5.43213H4V9.21585Z" fill="black"/>
<path d="M57.9773 5.6101L53.4146 4C53.4146 4 51.8024 7.09138 51.1414 8.18625L49.5292 11.1488V9.0557H47.2559V4.54743H42.4192V9.0557H41.339L41.726 6.49564L38.0178 5.91602C38.0178 6.81767 36.728 15.3351 36.728 15.3351C37.6284 15.3026 38.5076 15.0541 39.2915 14.6105C39.9258 13.8802 40.4673 13.0744 40.9037 12.2115H42.4192V16.913L37.2117 17.7341L38.0984 21.1153C38.0984 21.1153 40.4845 20.7289 42.4192 20.3747V28.4252H47.2559V19.3442L50.174 18.7807L49.642 15.7215L47.2559 16.0918V12.2115H48.9487L48.3039 13.3386C49.081 13.4718 49.8714 13.5096 50.6577 13.4513C52.1253 12.9259 53.4195 12.0067 54.3981 10.7946H55.2687C54.656 11.9056 52.5924 15.6249 51.5606 16.9935C50.3514 18.7163 47.9814 22.178 47.9814 22.178C49.3777 22.5662 50.8571 22.5382 52.2377 22.0975C53.4791 21.3729 58.9285 12.8555 60.2989 10.8268H61.6209C60.7825 12.2437 55.3493 21.4856 54.6722 22.5644C53.995 23.6432 51.7863 26.9761 51.7863 26.9761C51.7863 26.9761 55.3977 27.7328 57.0099 26.3481C58.7933 24.1272 60.3387 21.7258 61.6209 19.1832V24.6575H58.3964V28.2319H66.1996V7.52612H56.7681L57.9773 5.6101Z" fill="black"/>
<path d="M76.7123 9.52204C78.1014 9.52204 79.2274 8.39749 79.2274 7.01029C79.2274 5.62308 78.1014 4.49854 76.7123 4.49854C75.3233 4.49854 74.1973 5.62308 74.1973 7.01029C74.1973 8.39749 75.3233 9.52204 76.7123 9.52204Z" fill="black"/>
<path d="M76.7597 11.0352H76.7436C75.3812 11.0352 74.2769 12.1381 74.2769 13.4986V26.9429C74.2769 28.3034 75.3812 29.4064 76.7436 29.4064H76.7597C78.122 29.4064 79.2264 28.3034 79.2264 26.9429V13.4986C79.2264 12.1381 78.122 11.0352 76.7597 11.0352Z" fill="black"/>
<path d="M119.032 21.0985C119.165 21.0985 119.292 21.0459 119.386 20.9523C119.479 20.8587 119.532 20.7317 119.532 20.5993V16.9283C119.532 16.7959 119.479 16.669 119.386 16.5754C119.292 16.4818 119.165 16.4292 119.032 16.4292H108.134C107.991 16.4291 107.854 16.4846 107.752 16.5838C107.649 16.683 107.59 16.8181 107.585 16.9605V20.5671C107.59 20.7095 107.649 20.8447 107.752 20.9439C107.854 21.0431 107.991 21.0985 108.134 21.0985H119.032Z" fill="black"/>
<path d="M119.129 24.8669H109.052L106.892 23.4178C106.833 23.3759 106.767 23.3462 106.696 23.3308C106.626 23.3153 106.553 23.3143 106.482 23.3278C106.411 23.3414 106.344 23.3692 106.284 23.4096C106.224 23.45 106.173 23.5021 106.134 23.5628L104.022 26.783C103.953 26.8924 103.927 27.0229 103.948 27.1504C103.969 27.2778 104.035 27.3933 104.135 27.4753C104.929 28.2206 105.806 28.8741 106.747 29.4235C107.052 29.4563 107.36 29.4563 107.666 29.4235H119.113C119.178 29.4235 119.243 29.4106 119.304 29.3855C119.364 29.3604 119.42 29.3237 119.466 29.2773C119.512 29.231 119.549 29.1759 119.574 29.1154C119.599 29.0548 119.612 28.9899 119.612 28.9244V25.3661C119.612 25.2364 119.562 25.1119 119.472 25.0187C119.381 24.9255 119.258 24.8711 119.129 24.8669Z" fill="black"/>
<path d="M117.517 6.91416H110.116C109.445 6.87392 108.772 6.87392 108.101 6.91416C106.727 7.03373 105.398 7.46052 104.212 8.16289C103.026 8.86527 102.013 9.82522 101.249 10.9716C100.879 11.6015 100.545 12.2519 100.25 12.9198C99.9398 13.6503 99.7075 14.4112 99.5564 15.1901C99.3574 16.1261 99.2868 17.0849 99.3468 18.0399C99.3468 18.1687 99.3468 18.3136 99.3468 18.4425C99.463 19.3614 99.3794 20.2946 99.1017 21.1784C98.8239 22.0621 98.3585 22.8757 97.7373 23.5634C97.1161 24.2512 96.3536 24.7971 95.5019 25.1638C94.6501 25.5305 93.7293 25.7095 92.802 25.6884C91.8747 25.6673 90.9629 25.4468 90.1288 25.0417C89.2947 24.6367 88.5578 24.0568 87.9686 23.3415C87.3793 22.6261 86.9515 21.7923 86.7143 20.8969C86.477 20.0014 86.4361 19.0654 86.594 18.1526C86.6905 16.5474 87.3747 15.0337 88.5163 13.8995C89.6578 12.7654 91.1772 12.0901 92.785 12.0021C94.2354 11.9664 95.6554 12.4202 96.8156 13.2901C96.8655 13.3321 96.924 13.3627 96.9869 13.3798C97.0499 13.397 97.1158 13.4004 97.1802 13.3896C97.2445 13.3789 97.3058 13.3544 97.3598 13.3178C97.4137 13.2811 97.4591 13.2333 97.4927 13.1774L99.8627 9.68353C99.9281 9.58159 99.9529 9.45882 99.932 9.33954C99.9111 9.22026 99.8461 9.11317 99.7498 9.03948C97.6341 7.52679 95.0697 6.7701 92.4704 6.89154C89.8712 7.01298 87.3887 8.00546 85.4236 9.70882C83.4585 11.4122 82.1254 13.7271 81.6393 16.28C81.1533 18.8329 81.5427 21.4748 82.7446 23.7796C83.9466 26.0844 85.8911 27.9175 88.2643 28.9831C90.6375 30.0488 93.3011 30.2848 95.8251 29.6532C98.3491 29.0216 100.586 27.5591 102.176 25.5017C103.766 23.4443 104.615 20.9121 104.587 18.3136C104.595 18.1796 104.595 18.0452 104.587 17.9111C104.534 16.7354 104.784 15.5658 105.312 14.5138C105.634 13.8564 106.13 13.2995 106.747 12.9037C107.706 12.2784 108.826 11.9429 109.971 11.9377H117.501C117.829 11.9398 118.155 11.8767 118.459 11.7521C118.764 11.6274 119.04 11.4436 119.272 11.2115C119.505 10.9793 119.689 10.7033 119.814 10.3996C119.938 10.0958 120.002 9.77034 119.999 9.44201C120.004 9.11293 119.943 8.78625 119.82 8.48079C119.697 8.17533 119.515 7.89712 119.285 7.66217C119.054 7.42722 118.779 7.24017 118.476 7.1118C118.172 6.98342 117.846 6.91625 117.517 6.91416Z" fill="black"/>
</g>
</svg>
