<svg width="25" height="25" viewBox="0 0 25 25" fill="none" xmlns="http://www.w3.org/2000/svg">
<path d="M12.5029 23.342C6.68042 23.342 1.94336 18.6603 1.94336 12.9062C1.94336 10.3576 2.88281 7.90422 4.58765 5.99699C5.06152 5.4677 5.59424 4.98161 6.17139 4.55339C6.5092 4.30271 6.86172 4.07248 7.22705 3.86394C7.71118 3.58806 8.32495 3.75603 8.59912 4.2382C8.87451 4.72038 8.70703 5.33513 8.22485 5.61027C7.92884 5.77964 7.64303 5.96624 7.3689 6.16911C6.90186 6.51579 6.4707 6.90861 6.08765 7.33781C4.71167 8.8759 3.95459 10.8537 3.95459 12.9064C3.95459 17.5517 7.78931 21.331 12.5029 21.331C17.2166 21.331 21.0513 17.5514 21.0513 12.9062C21.0513 10.8537 20.2939 8.87663 18.9187 7.33757C18.5319 6.90549 18.1021 6.51391 17.636 6.16887C17.364 5.96648 17.0757 5.77898 16.7805 5.61003C16.2983 5.33415 16.1313 4.72014 16.4067 4.23796C16.6826 3.75578 17.2961 3.58684 17.7793 3.86369C18.1437 4.07256 18.4957 4.30244 18.8335 4.55217C19.4089 4.97942 19.9424 5.4655 20.4182 5.99675C22.1235 7.90495 23.0625 10.3583 23.0625 12.9059C23.0625 18.6603 18.3254 23.342 12.5029 23.342Z" fill="black"/>
<path d="M12.5027 13.7878C11.9473 13.7878 11.4971 13.3381 11.4971 12.7822V2.72534C11.4971 2.16943 11.9473 1.71973 12.5027 1.71973C13.0581 1.71973 13.5083 2.16943 13.5083 2.72534V12.7822C13.5083 13.3381 13.0581 13.7878 12.5027 13.7878Z" fill="black"/>
</svg>
