<svg width="31" height="31" viewBox="0 0 31 31" fill="none" xmlns="http://www.w3.org/2000/svg">
<path d="M22.902 21.9815V14.4979C22.902 10.9953 19.8897 7.70762 16.1873 7.39277C11.7977 7.01738 8.10127 10.2778 8.10127 14.3345V21.9846H5.98213V14.3314C5.98213 10.402 8.68555 7.05674 12.4273 5.84883V4.83164C12.4273 3.2332 13.8018 1.9375 15.5001 1.9375C17.1984 1.9375 18.5729 3.2332 18.5729 4.83164V5.84883C22.3177 7.05674 25.0181 10.402 25.0181 14.3314V21.9815H22.902ZM16.4567 4.83164C16.4567 4.33516 16.0269 3.92949 15.5001 3.92949C14.9733 3.92949 14.5435 4.33516 14.5435 4.83164V5.41289C14.8583 5.38262 15.1792 5.36445 15.5001 5.36445C15.824 5.36445 16.1419 5.38262 16.4567 5.41289V4.83164ZM26.6468 25.2087H4.35342C3.76914 25.2087 3.29688 24.7637 3.29688 24.2097C3.29688 23.6617 3.77217 23.2137 4.35342 23.2137H26.6468C27.2311 23.2137 27.7033 23.6587 27.7033 24.2097C27.7063 24.7637 27.2311 25.2087 26.6468 25.2087ZM15.5001 29.0625C13.8018 29.0625 12.391 27.9182 12.0822 26.4045H18.921C18.6092 27.9182 17.1984 29.0625 15.5001 29.0625Z" fill="black"/>
</svg>
