<svg width="14" height="14" viewBox="0 0 14 14" fill="none" xmlns="http://www.w3.org/2000/svg">
<path d="M6.56241 0C2.93836 0 0 2.9381 0 6.56241C0 10.1869 2.93836 13.125 6.56241 13.125C10.1868 13.125 13.125 10.1869 13.125 6.56241C13.125 2.93789 10.1868 0 6.56259 0H6.56241ZM6.54785 12.1873C3.44136 12.1873 0.922852 9.66863 0.922852 6.56231C0.922852 3.45561 3.44136 0.9375 6.54766 0.9375C9.65436 0.9375 12.1729 3.4558 12.1729 6.5625C12.1729 9.66899 9.65435 12.1875 6.54766 12.1875L6.54785 12.1873ZM6.55258 2.40234C6.18394 2.40234 5.88508 2.7012 5.88508 3.06984C5.88508 3.07825 5.88523 3.08666 5.88557 3.09507L6.05156 7.48673C6.06174 7.75611 6.2831 7.96928 6.55269 7.96928C6.82229 7.96928 7.04364 7.75613 7.05381 7.48673L7.21964 3.09507C7.23356 2.72666 6.94619 2.41673 6.57778 2.40281C6.56938 2.4025 6.56098 2.40234 6.55258 2.40234ZM6.54183 8.84789C6.0229 8.84789 5.61035 9.26174 5.61035 9.77928C5.61035 10.2855 5.99908 10.7227 6.54185 10.7227C7.06028 10.7227 7.48535 10.3086 7.48535 9.77928C7.48535 9.26197 7.06028 8.84766 6.54185 8.84766V8.84789H6.54183Z" fill="white"/>
</svg>
