<svg width="14" height="14" viewBox="0 0 14 14" fill="none" xmlns="http://www.w3.org/2000/svg">
<path d="M6.99797 11.1363C6.80196 11.1354 6.60825 11.0939 6.42903 11.0145C6.24981 10.9351 6.08896 10.8195 5.95658 10.6749L0.247225 4.52142C0.0881424 4.34514 8.58444e-05 4.11614 8.58415e-05 3.8787C8.58387e-05 3.64126 0.0881424 3.41225 0.247225 3.23598C0.322392 3.1522 0.414367 3.08519 0.517156 3.03931C0.619945 2.99344 0.731244 2.96973 0.843806 2.96973C0.956367 2.96973 1.06767 2.99344 1.17046 3.03931C1.27324 3.08519 1.36522 3.1522 1.44039 3.23598L6.99988 9.22597L12.5597 3.2363C12.6349 3.15252 12.7268 3.0855 12.8296 3.03963C12.9324 2.99375 13.0437 2.97004 13.1563 2.97004C13.2688 2.97004 13.3801 2.99375 13.4829 3.03963C13.5857 3.0855 13.6777 3.15252 13.7529 3.2363C13.9119 3.41257 14 3.64158 14 3.87902C14 4.11646 13.9119 4.34546 13.7529 4.52173L8.04287 10.673C7.91005 10.8181 7.74867 10.9342 7.56885 11.0139C7.38903 11.0936 7.19467 11.1353 6.99797 11.1363Z" fill="#1B1B1B"/>
</svg>
