<svg width="22" height="22" viewBox="0 0 22 22" fill="none" xmlns="http://www.w3.org/2000/svg">
<g clip-path="url(#clip0_1_12466)">
<path d="M16.341 7.49394V15.7342C16.3411 15.8623 16.3792 15.9875 16.4505 16.094C16.5218 16.2005 16.6231 16.2833 16.7416 16.3321C16.8601 16.3809 16.9904 16.3934 17.116 16.368C17.2416 16.3426 17.3568 16.2805 17.4471 16.1895L21.5504 12.0552C21.671 11.9338 21.7387 11.7694 21.7384 11.5983C21.7382 11.4271 21.6701 11.263 21.5491 11.1419L17.4445 7.0373C17.3539 6.94705 17.2387 6.88566 17.1133 6.86086C16.9879 6.83606 16.858 6.84898 16.7399 6.89797C16.6219 6.94697 16.521 7.02985 16.45 7.13615C16.379 7.24245 16.3411 7.36741 16.341 7.49523V7.49394ZM20.4534 4.27288C20.7279 4.27288 20.9911 4.16385 21.1852 3.96977C21.3792 3.77569 21.4883 3.51247 21.4883 3.238C21.4883 2.96354 21.3792 2.70031 21.1852 2.50623C20.9911 2.31216 20.7279 2.20313 20.4534 2.20312H1.04942C0.774958 2.20313 0.511733 2.31216 0.317655 2.50623C0.123578 2.70031 0.0145466 2.96354 0.0145466 3.238C0.0145466 3.51247 0.123578 3.77569 0.317655 3.96977C0.511733 4.16385 0.774958 4.27288 1.04942 4.27288H20.4534ZM12.6918 9.44727C12.9663 9.44727 13.2295 9.33824 13.4236 9.14416C13.6176 8.95009 13.7267 8.68686 13.7267 8.41239C13.7267 8.13793 13.6176 7.8747 13.4236 7.68062C13.2295 7.48655 12.9663 7.37751 12.6918 7.37751H1.03519C0.760728 7.37751 0.497503 7.48655 0.303426 7.68062C0.109348 7.8747 0.000317013 8.13793 0.000317013 8.41239C0.000317013 8.68686 0.109348 8.95009 0.303426 9.14416C0.497503 9.33824 0.760728 9.44727 1.03519 9.44727H12.6905H12.6918ZM12.6918 14.6217C12.9663 14.6217 13.2295 14.5126 13.4236 14.3186C13.6176 14.1245 13.7267 13.8612 13.7267 13.5868C13.7267 13.3123 13.6176 13.0491 13.4236 12.855C13.2295 12.6609 12.9663 12.5519 12.6918 12.5519H1.03519C0.760728 12.5519 0.497503 12.6609 0.303426 12.855C0.109348 13.0491 0.000317013 13.3123 0.000317013 13.5868C0.000317013 13.8612 0.109348 14.1245 0.303426 14.3186C0.497503 14.5126 0.760728 14.6217 1.03519 14.6217H12.6905H12.6918ZM20.064 19.7961C20.3385 19.7961 20.6017 19.687 20.7958 19.4929C20.9899 19.2989 21.0989 19.0356 21.0989 18.7612C21.0989 18.4867 20.9899 18.2235 20.7958 18.0294C20.6017 17.8353 20.3385 17.7263 20.064 17.7263H1.0339C0.759435 17.7263 0.496209 17.8353 0.302132 18.0294C0.108055 18.2235 -0.000976562 18.4867 -0.000976562 18.7612C-0.000976562 19.0356 0.108055 19.2989 0.302132 19.4929C0.496209 19.687 0.759435 19.7961 1.0339 19.7961H20.064Z" fill="#333441"/>
</g>
<defs>
<clipPath id="clip0_1_12466">
<rect width="22" height="22" fill="white"/>
</clipPath>
</defs>
</svg>
