<svg width="15" height="15" viewBox="0 0 15 15" fill="none" xmlns="http://www.w3.org/2000/svg">
<g clip-path="url(#clip0_233_634)">
<path d="M6.09375 3.75C5.96955 3.7504 5.85055 3.79991 5.76273 3.88773C5.67491 3.97555 5.6254 4.09455 5.625 4.21875V8.90625C5.625 9.16425 5.83575 9.375 6.09375 9.375H10.7812C10.9054 9.3746 11.0244 9.32509 11.1123 9.23727C11.2001 9.14945 11.2496 9.03045 11.25 8.90625C11.2496 8.78205 11.2001 8.66305 11.1123 8.57523C11.0244 8.48741 10.9054 8.4379 10.7812 8.4375H7.26525L14.1097 1.47675C14.2002 1.37734 14.2503 1.24777 14.2503 1.11338C14.2503 0.97898 14.2002 0.849415 14.1097 0.75C13.8982 0.5625 13.5938 0.5625 13.4062 0.75L6.5625 7.73475V4.21875C6.5621 4.09455 6.51259 3.97555 6.42477 3.88773C6.33695 3.79991 6.21795 3.7504 6.09375 3.75ZM14.5312 8.4375C14.4071 8.4379 14.2881 8.48741 14.2002 8.57523C14.1124 8.66305 14.0629 8.78205 14.0625 8.90625V13.5938C14.0621 13.7179 14.0126 13.8369 13.9248 13.9248C13.8369 14.0126 13.7179 14.0621 13.5938 14.0625H1.40625C1.28205 14.0621 1.16305 14.0126 1.07523 13.9248C0.987409 13.8369 0.937896 13.7179 0.9375 13.5938V1.40625C0.9375 1.14825 1.14825 0.9375 1.40625 0.9375H6.09375C6.21795 0.937104 6.33695 0.887591 6.42477 0.799769C6.51259 0.711947 6.5621 0.592949 6.5625 0.46875C6.5621 0.344551 6.51259 0.225553 6.42477 0.137731C6.33695 0.0499086 6.21795 0.00039554 6.09375 0L0.9375 0C0.4215 0 0 0.42225 0 0.9375V14.0625C0 14.5785 0.42225 15 0.9375 15H14.0625C14.5785 15 15 14.5778 15 14.0625V8.90625C14.9996 8.78205 14.9501 8.66305 14.8623 8.57523C14.7744 8.48741 14.6554 8.4379 14.5312 8.4375Z" fill="#434343"/>
</g>
<defs>
<clipPath id="clip0_233_634">
<rect width="15" height="15" fill="white"/>
</clipPath>
</defs>
</svg>
