<svg width="14" height="14" viewBox="0 0 14 14" fill="none" xmlns="http://www.w3.org/2000/svg">
<path d="M11.816 5.25C11.9933 5.25 12.1637 5.285 12.327 5.355C12.4903 5.425 12.6303 5.51833 12.747 5.635C12.8637 5.75167 12.957 5.89167 13.027 6.055C13.097 6.21833 13.132 6.38867 13.132 6.566C13.132 6.75267 13.097 6.92533 13.027 7.084C12.957 7.24267 12.8637 7.38033 12.747 7.497C12.6303 7.61367 12.4903 7.707 12.327 7.777C12.1637 7.847 11.9933 7.882 11.816 7.882H7.882V11.816C7.882 12.0027 7.847 12.1753 7.777 12.334C7.707 12.4927 7.61367 12.6303 7.497 12.747C7.38033 12.8637 7.24033 12.957 7.077 13.027C6.91367 13.097 6.74333 13.132 6.566 13.132C6.37933 13.132 6.20667 13.097 6.048 13.027C5.88933 12.957 5.75167 12.8637 5.635 12.747C5.51833 12.6303 5.425 12.4927 5.355 12.334C5.285 12.1753 5.25 12.0027 5.25 11.816V7.882H1.316C1.12933 7.882 0.956667 7.847 0.798 7.777C0.639333 7.707 0.501667 7.61367 0.385 7.497C0.268333 7.38033 0.175 7.24267 0.105 7.084C0.0350001 6.92533 0 6.75267 0 6.566C0 6.38867 0.0350001 6.21833 0.105 6.055C0.175 5.89167 0.268333 5.75167 0.385 5.635C0.501667 5.51833 0.639333 5.425 0.798 5.355C0.956667 5.285 1.12933 5.25 1.316 5.25H5.25V1.316C5.25 1.13867 5.285 0.968333 5.355 0.805C5.425 0.641667 5.51833 0.501667 5.635 0.385C5.75167 0.268333 5.88933 0.175 6.048 0.105C6.20667 0.035 6.37933 0 6.566 0C6.93 0 7.24033 0.128333 7.497 0.385C7.75367 0.641667 7.882 0.952 7.882 1.316V5.25H11.816Z" fill="#939393"/>
</svg>
