<svg width="25" height="25" viewBox="0 0 25 25" fill="none" xmlns="http://www.w3.org/2000/svg">
<path d="M19.039 5.87137C17.2101 4.10028 14.7785 3.125 12.1921 3.125C12.192 3.125 12.1923 3.125 12.1921 3.125C9.60589 3.125 7.17402 4.10044 5.3453 5.87137C5.33689 5.87953 5.31083 5.90484 5.27342 5.94128L5.56886 4.87366C5.65986 4.54484 5.4583 4.20681 5.11877 4.11869C4.77908 4.0305 4.43017 4.22572 4.33917 4.55456L3.42902 7.84381C3.37014 8.05656 3.43296 8.2835 3.59374 8.43922C3.71471 8.55634 3.87727 8.61975 4.04386 8.61975C4.0988 8.61975 4.15414 8.61284 4.20861 8.59875L7.60521 7.71737C7.94477 7.62925 8.1463 7.29125 8.0553 6.96241C7.96433 6.63359 7.61524 6.43844 7.27571 6.52653L6.17411 6.81238C6.20318 6.78409 6.22777 6.76022 6.24546 6.74303C7.83389 5.20484 9.94577 4.35769 12.1921 4.35775C14.4384 4.35775 16.5503 5.20484 18.1387 6.74303C21.4177 9.91834 21.4177 15.0849 18.1387 18.2602C14.8598 21.4354 9.52449 21.4355 6.24546 18.2602C5.41389 17.4549 4.7778 16.5132 4.35486 15.4613C4.22733 15.1441 3.85833 14.9871 3.53077 15.1105C3.20317 15.234 3.04099 15.5913 3.16855 15.9085C3.65586 17.1206 4.38817 18.2052 5.3453 19.1319C7.17411 20.903 9.60574 21.8783 12.1921 21.8783C14.7786 21.8783 17.2101 20.9029 19.039 19.1319C20.8679 17.3609 21.8751 15.0062 21.875 12.5017C21.875 9.99706 20.8679 7.64241 19.039 5.87137Z" fill="white"/>
</svg>
