<svg width="24" height="24" viewBox="0 0 24 24" fill="none" xmlns="http://www.w3.org/2000/svg">
<g filter="url(#filter0_i_400_322)">
<path d="M16.1401 2.96004L7.11012 5.96004C1.04012 7.99004 1.04012 11.3 7.11012 13.32C8.79672 13.8801 10.12 15.2034 10.6801 16.89C12.7001 22.96 16.0201 22.96 18.0401 16.89L21.0501 7.87004C22.3901 3.82004 20.1901 1.61004 16.1401 2.96004ZM16.4601 8.34004L12.6601 12.16C12.5101 12.31 12.3201 12.38 12.1301 12.38C11.9401 12.38 11.7501 12.31 11.6001 12.16C11.3101 11.87 11.3101 11.39 11.6001 11.1L15.4001 7.28004C15.6901 6.99004 16.1701 6.99004 16.4601 7.28004C16.7501 7.57004 16.7501 8.05004 16.4601 8.34004Z" fill="white"/>
</g>
<defs>
<filter id="filter0_i_400_322" x="2.55762" y="2.56348" width="18.8848" height="22.8789" filterUnits="userSpaceOnUse" color-interpolation-filters="sRGB">
<feFlood flood-opacity="0" result="BackgroundImageFix"/>
<feBlend mode="normal" in="SourceGraphic" in2="BackgroundImageFix" result="shape"/>
<feColorMatrix in="SourceAlpha" type="matrix" values="0 0 0 0 0 0 0 0 0 0 0 0 0 0 0 0 0 0 127 0" result="hardAlpha"/>
<feOffset dy="4"/>
<feGaussianBlur stdDeviation="2"/>
<feComposite in2="hardAlpha" operator="arithmetic" k2="-1" k3="1"/>
<feColorMatrix type="matrix" values="0 0 0 0 1 0 0 0 0 1 0 0 0 0 1 0 0 0 0.25 0"/>
<feBlend mode="normal" in2="shape" result="effect1_innerShadow_400_322"/>
</filter>
</defs>
</svg>
