<svg width="84" height="84" viewBox="0 0 84 84" fill="none" xmlns="http://www.w3.org/2000/svg">
<g clip-path="url(#clip0_476_544)">
<path d="M12.3529 0H71.6471C78.4696 0 84 5.53041 84 12.3529V71.6471C84 78.4696 78.4696 84 71.6471 84H12.3529C5.53041 84 0 78.4696 0 71.6471V12.3529C0 5.53041 5.53041 0 12.3529 0ZM30.9602 17.3386L21 26.6552V63.6423C20.9993 64.0446 21.0781 64.4431 21.2316 64.8149C21.3852 65.1867 21.6106 65.5246 21.895 65.8092C22.1793 66.0937 22.517 66.3194 22.8887 66.4733C23.2604 66.6272 23.6588 66.7062 24.0611 66.7059H58.8865C59.2888 66.7062 59.6871 66.6272 60.0588 66.4733C60.4305 66.3194 60.7682 66.0937 61.0526 65.8092C61.3369 65.5246 61.5623 65.1867 61.7159 64.8149C61.8695 64.4431 61.9482 64.0446 61.9475 63.6423V20.4021C61.9482 19.9998 61.8695 19.6014 61.7159 19.2296C61.5623 18.8577 61.3369 18.5199 61.0526 18.2353C60.7682 17.9507 60.4305 17.725 60.0588 17.5712C59.6871 17.4173 59.2888 17.3383 58.8865 17.3386H30.9602ZM27.9139 35.9915V33.4839H52.8508V35.9915H27.9139ZM27.9139 42.9858V40.4781H52.8508V42.9858H27.9139ZM27.9139 49.9565V47.4489H38.9019V49.9565H27.9139ZM58.0823 47.7836C58.1952 47.8965 58.2848 48.0306 58.346 48.1781C58.4071 48.3256 58.4386 48.4837 58.4386 48.6434C58.4386 48.8031 58.4071 48.9612 58.346 49.1087C58.2848 49.2563 58.1952 49.3903 58.0823 49.5032L56.6494 50.9349L53.7835 48.069L55.2164 46.6373C55.4445 46.4095 55.7538 46.2815 56.0762 46.2815C56.3986 46.2815 56.7078 46.4095 56.9359 46.6373L58.0823 47.7836ZM45.3921 56.3949L53.2288 48.6694L56.1108 51.534L48.2753 59.2595L45.3921 56.3949ZM43.0648 61.6461L44.8115 56.994L47.6589 59.8352L43.0648 61.6461ZM31.4555 28.0869L24.2044 27.9609L31.4555 20.6665V28.0869Z" fill="#AC1F24"/>
</g>
<defs>
<clipPath id="clip0_476_544">
<rect width="84" height="84" fill="white"/>
</clipPath>
</defs>
</svg>
