<svg width="11" height="11" viewBox="0 0 11 11" fill="none" xmlns="http://www.w3.org/2000/svg">
<path d="M8.3966 6.61753C8.52077 7.19455 8.63033 7.7168 8.72529 8.18426C8.76911 8.38147 8.80929 8.57868 8.84581 8.7759C8.88233 8.97311 8.91702 9.15206 8.94989 9.31275C8.98276 9.47344 9.01015 9.61039 9.03206 9.7236C9.05397 9.83682 9.06858 9.90803 9.07589 9.93725C9.0978 10.0833 9.06493 10.1801 8.97728 10.2276C8.88963 10.2751 8.79103 10.2988 8.68146 10.2988C8.64494 10.2988 8.59199 10.286 8.5226 10.2605C8.45321 10.2349 8.40026 10.2148 8.36374 10.2002L5.50417 8.53486C4.98558 8.84163 4.51447 9.11554 4.09083 9.35657C3.90822 9.45883 3.72745 9.56109 3.5485 9.66335C3.36955 9.7656 3.20703 9.86056 3.06095 9.94821C2.91486 10.0359 2.78887 10.1089 2.68296 10.1673C2.57705 10.2258 2.50583 10.2623 2.46931 10.2769C2.39627 10.3134 2.3214 10.3262 2.24471 10.3152C2.16802 10.3043 2.09863 10.2769 2.03654 10.2331C1.97446 10.1892 1.92881 10.1363 1.89959 10.0742C1.87038 10.0121 1.86307 9.94821 1.87768 9.88247C1.88498 9.85325 1.90324 9.78204 1.93246 9.66882C1.96168 9.55561 1.99455 9.42048 2.03107 9.26345C2.06759 9.10641 2.10959 8.93293 2.15706 8.74303C2.20454 8.55312 2.25384 8.35956 2.30497 8.16235C2.41453 7.70949 2.5387 7.19821 2.67748 6.62849C2.24654 6.25598 1.85942 5.92364 1.51613 5.63147C1.37004 5.5073 1.22579 5.38496 1.08336 5.26444C0.940927 5.14392 0.813105 5.03436 0.699891 4.93576C0.586677 4.83715 0.49355 4.75681 0.420508 4.69472C0.347467 4.63264 0.307295 4.59794 0.299991 4.59064C0.212341 4.51029 0.137474 4.42082 0.0753889 4.32221C0.0133039 4.22361 -0.0104345 4.12317 0.00417378 4.02092C0.018782 3.91866 0.0589547 3.83831 0.124692 3.77988C0.190429 3.72145 0.26347 3.68493 0.343815 3.67032L3.72927 3.36355L4.98923 0.427291C5.03306 0.310425 5.09514 0.209993 5.17549 0.125996C5.25583 0.0419987 5.3654 0 5.50417 0C5.57721 0 5.64113 0.0164343 5.69591 0.0493028C5.75069 0.0821713 5.79634 0.120518 5.83286 0.164343C5.86938 0.208167 5.90042 0.251992 5.92599 0.295817C5.95155 0.339641 5.97164 0.376162 5.98624 0.405378L7.21334 3.34163L10.5988 3.65936C10.7449 3.69588 10.8471 3.73971 10.9056 3.79084C10.964 3.84197 10.9932 3.92231 10.9932 4.03187C10.9932 4.13413 10.9622 4.22361 10.9001 4.3003C10.838 4.37699 10.7595 4.47012 10.6645 4.57968L8.3966 6.61753Z" fill="#AC1F24"/>
</svg>
