<svg width="11" height="11" viewBox="0 0 11 11" fill="none" xmlns="http://www.w3.org/2000/svg">
<g clip-path="url(#clip0_468_412)">
<path d="M8.39172 6.61753C8.51589 7.19455 8.62545 7.7168 8.72041 8.18426C8.76423 8.38147 8.8044 8.57868 8.84092 8.7759C8.87744 8.97311 8.91214 9.15206 8.94501 9.31275C8.97788 9.47344 9.00527 9.61039 9.02718 9.7236C9.04909 9.83682 9.0637 9.90803 9.071 9.93725C9.09292 10.0833 9.06005 10.1801 8.9724 10.2276C8.88475 10.2751 8.78614 10.2988 8.67658 10.2988C8.64006 10.2988 8.58711 10.286 8.51772 10.2605C8.44833 10.2349 8.39537 10.2148 8.35885 10.2002L5.49929 8.53486C4.9807 8.84163 4.50958 9.11554 4.08594 9.35657C3.90334 9.45883 3.72256 9.56109 3.54361 9.66335C3.36466 9.7656 3.20215 9.86056 3.05606 9.94821C2.90998 10.0359 2.78399 10.1089 2.67808 10.1673C2.57217 10.2258 2.50095 10.2623 2.46443 10.2769C2.39139 10.3134 2.31652 10.3262 2.23983 10.3152C2.16314 10.3043 2.09375 10.2769 2.03166 10.2331C1.96958 10.1892 1.92393 10.1363 1.89471 10.0742C1.86549 10.0121 1.85819 9.94821 1.8728 9.88247C1.8801 9.85325 1.89836 9.78204 1.92758 9.66882C1.95679 9.55561 1.98966 9.42048 2.02618 9.26345C2.0627 9.10641 2.1047 8.93293 2.15218 8.74303C2.19966 8.55312 2.24896 8.35956 2.30009 8.16235C2.40965 7.70949 2.53382 7.19821 2.6726 6.62849C2.24165 6.25598 1.85454 5.92364 1.51124 5.63147C1.36516 5.5073 1.2209 5.38496 1.07847 5.26444C0.936044 5.14392 0.808222 5.03436 0.695008 4.93576C0.581794 4.83715 0.488667 4.75681 0.415626 4.69472C0.342584 4.63264 0.302412 4.59794 0.295108 4.59064C0.207458 4.51029 0.132591 4.42082 0.0705061 4.32221C0.00842111 4.22361 -0.0153173 4.12317 -0.00070903 4.02092C0.0138992 3.91866 0.0540718 3.83831 0.119809 3.77988C0.185546 3.72145 0.258587 3.68493 0.338932 3.67032L3.72439 3.36355L4.98435 0.427291C5.02818 0.310425 5.09026 0.209993 5.17061 0.125996C5.25095 0.0419987 5.36051 0 5.49929 0C5.57233 0 5.63624 0.0164343 5.69102 0.0493028C5.7458 0.0821713 5.79146 0.120518 5.82798 0.164343C5.8645 0.208167 5.89554 0.251992 5.9211 0.295817C5.94667 0.339641 5.96675 0.376162 5.98136 0.405378L7.20845 3.34163L10.5939 3.65936C10.74 3.69588 10.8423 3.73971 10.9007 3.79084C10.9591 3.84197 10.9883 3.92231 10.9883 4.03187C10.9883 4.13413 10.9573 4.22361 10.8952 4.3003C10.8331 4.37699 10.7546 4.47012 10.6596 4.57968L8.39172 6.61753Z" fill="#57E4D5"/>
</g>
<defs>
<clipPath id="clip0_468_412">
<rect width="11" height="11" fill="white"/>
</clipPath>
</defs>
</svg>
